<svg width="22" height="22" viewBox="0 0 22 22" fill="none" xmlns="http://www.w3.org/2000/svg">
<path d="M2.75 10C2.19772 10 1.75 10.4477 1.75 11C1.75 11.5523 2.19772 12 2.75 12V10ZM19.25 12C19.8023 12 20.25 11.5523 20.25 11C20.25 10.4477 19.8023 10 19.25 10V12ZM2.75 4.5C2.19772 4.5 1.75 4.94772 1.75 5.5C1.75 6.05228 2.19772 6.5 2.75 6.5V4.5ZM19.25 6.5C19.8023 6.5 20.25 6.05228 20.25 5.5C20.25 4.94772 19.8023 4.5 19.25 4.5V6.5ZM2.75 15.5C2.19772 15.5 1.75 15.9477 1.75 16.5C1.75 17.0523 2.19772 17.5 2.75 17.5V15.5ZM19.25 17.5C19.8023 17.5 20.25 17.0523 20.25 16.5C20.25 15.9477 19.8023 15.5 19.25 15.5V17.5ZM2.75 12H19.25V10H2.75V12ZM2.75 6.5H19.25V4.5H2.75V6.5ZM2.75 17.5H19.25V15.5H2.75V17.5Z" fill="#00AD97"/>
</svg>
