<svg width="20" height="21" viewBox="0 0 20 21" fill="none" xmlns="http://www.w3.org/2000/svg">
<path fill-rule="evenodd" clip-rule="evenodd" d="M9.99967 2.99992C5.85754 2.99992 2.49967 6.35778 2.49967 10.4999C2.49967 14.6421 5.85754 17.9999 9.99967 17.9999C14.1418 17.9999 17.4997 14.6421 17.4997 10.4999C17.4997 6.35778 14.1418 2.99992 9.99967 2.99992ZM0.833008 10.4999C0.833008 5.43731 4.93706 1.33325 9.99967 1.33325C15.0623 1.33325 19.1663 5.43731 19.1663 10.4999C19.1663 15.5625 15.0623 19.6666 9.99967 19.6666C4.93706 19.6666 0.833008 15.5625 0.833008 10.4999ZM14.3389 7.41066C14.6644 7.7361 14.6644 8.26374 14.3389 8.58917L9.33893 13.5892C9.01349 13.9146 8.48585 13.9146 8.16042 13.5892L5.66042 11.0892C5.33498 10.7637 5.33498 10.2361 5.66042 9.91066C5.98586 9.58522 6.51349 9.58522 6.83893 9.91066L8.74967 11.8214L13.1604 7.41066C13.4859 7.08523 14.0135 7.08523 14.3389 7.41066Z" fill="#11C872"/>
</svg>
