<svg width="23" height="22" viewBox="0 0 23 22" fill="none" xmlns="http://www.w3.org/2000/svg">
<path fill-rule="evenodd" clip-rule="evenodd" d="M4.46809 5.38233C3.23647 6.922 2.5 8.87499 2.5 11C2.5 13.125 3.23648 15.078 4.46811 16.6177L7.32841 13.7574C6.80488 12.967 6.5 12.0191 6.5 11C6.5 9.98092 6.80487 9.03305 7.32839 8.24262L4.46809 5.38233ZM5.8823 3.96811L8.7426 6.82841C9.53303 6.30488 10.4809 6 11.5 6C12.5184 6 13.4657 6.30447 14.2558 6.82734L17.1162 3.96692C15.5768 2.736 13.6243 2 11.5 2C9.37498 2 7.42197 2.73648 5.8823 3.96811ZM18.5307 5.38084L15.6705 8.24102C16.1947 9.03177 16.5 9.98023 16.5 11C16.5 12.0198 16.1947 12.9683 15.6705 13.759L18.5307 16.6192C19.7631 15.0793 20.5 13.1257 20.5 11C20.5 8.87431 19.7631 6.92074 18.5307 5.38084ZM17.1162 18.0331L14.2558 15.1727C13.4657 15.6955 12.5184 16 11.5 16C10.4809 16 9.53305 15.6951 8.74262 15.1716L5.88233 18.0319C7.422 19.2635 9.37499 20 11.5 20C13.6243 20 15.5767 19.264 17.1162 18.0331ZM3.72617 18.7825C5.71644 20.7706 8.46464 22 11.5 22C17.5751 22 22.5 17.0751 22.5 11C22.5 4.92487 17.5751 0 11.5 0C5.42487 0 0.5 4.92487 0.5 11C0.5 14.0354 1.72944 16.7836 3.71751 18.7739C3.71894 18.7753 3.72038 18.7768 3.72183 18.7782C3.72327 18.7796 3.72472 18.7811 3.72617 18.7825ZM11.5 8C9.84315 8 8.5 9.34315 8.5 11C8.5 12.6569 9.84315 14 11.5 14C13.1569 14 14.5 12.6569 14.5 11C14.5 9.34315 13.1569 8 11.5 8Z" fill="#101828"/>
</svg>
