<svg width="13" height="12" viewBox="0 0 13 12" fill="none" xmlns="http://www.w3.org/2000/svg">
<path fill-rule="evenodd" clip-rule="evenodd" d="M9.5 3C8.94772 3 8.5 3.44772 8.5 4C8.5 4.55228 8.94772 5 9.5 5C10.0523 5 10.5 4.55228 10.5 4C10.5 3.44772 10.0523 3 9.5 3ZM7.56301 3.5C7.78503 2.63739 8.56808 2 9.5 2C10.6046 2 11.5 2.89543 11.5 4C11.5 5.10457 10.6046 6 9.5 6C8.56808 6 7.78503 5.36261 7.56301 4.5L2 4.5C1.72386 4.5 1.5 4.27614 1.5 4C1.5 3.72386 1.72386 3.5 2 3.5L7.56301 3.5ZM3.5 7C2.94772 7 2.5 7.44772 2.5 8C2.5 8.55228 2.94772 9 3.5 9C4.05228 9 4.5 8.55228 4.5 8C4.5 7.44772 4.05228 7 3.5 7ZM1.5 8C1.5 6.89543 2.39543 6 3.5 6C4.43192 6 5.21497 6.63739 5.43699 7.5L11 7.5C11.2761 7.5 11.5 7.72386 11.5 8C11.5 8.27614 11.2761 8.5 11 8.5L5.43699 8.5C5.21497 9.36261 4.43192 10 3.5 10C2.39543 10 1.5 9.10457 1.5 8Z" fill="white"/>
</svg>
