<svg width="134" height="32" viewBox="0 0 134 32" fill="none" xmlns="http://www.w3.org/2000/svg">
<path d="M19.3395 15.3888C19.4157 13.9919 19.0767 12.5163 18.8876 11.143C18.6249 9.21572 18.4515 6.64513 20.5716 5.67886C21.7749 5.12745 22.634 6.30378 22.3739 7.4486C22.2662 7.92123 22.0586 8.37286 21.9956 8.856C21.9325 9.33914 22.1847 9.73562 22.6944 9.56757C23.2041 9.39953 23.6113 8.09453 23.8004 7.66391C24.3049 6.51122 25.0116 5.03818 26.4907 4.99879C28.109 4.96466 28.201 6.53747 27.6808 7.68492C26.9899 9.20522 25.5213 10.203 24.5282 11.5027C23.3101 13.0502 22.4618 14.8554 22.0481 16.7805C21.8695 17.6627 22.6024 17.8308 23.2067 17.3292C24.783 15.9796 25.4293 13.8003 26.5511 12.0778C27.1475 11.1614 29.1915 8.68008 30.2922 10.3894C30.7573 11.1063 30.3211 11.9124 29.801 12.49C29.1573 13.1937 28.2246 13.7714 27.9041 14.7088C27.4917 15.893 28.5662 15.402 29.1757 15.0711C29.6249 14.8269 30.2949 14.2834 30.8466 14.4226C31.7477 14.6536 31.6347 15.5438 31.2643 16.1923C30.3054 17.9253 28.1826 18.5345 26.3882 19.0071C25.1351 19.3379 23.8556 19.6425 22.7102 20.2569C21.6225 20.8399 20.6531 21.7326 20.2353 22.8827C20.184 22.9798 20.1572 23.088 20.1572 23.1978C20.1572 23.3076 20.184 23.4158 20.2353 23.5129C20.6294 24.038 21.5069 23.4603 21.9036 23.2267C24.0842 21.94 26.517 20.299 29.1652 20.3777C29.6468 20.3665 30.1214 20.4951 30.5313 20.748C30.7342 20.8764 30.8932 21.0635 30.987 21.2844C31.0809 21.5053 31.1052 21.7496 31.0568 21.9847C30.9471 22.284 30.7373 22.5363 30.463 22.6989C29.688 23.224 28.7186 23.3238 27.7964 23.4866C27.0477 23.6179 26.0125 23.8253 25.5002 24.4503C25.1456 24.8861 25.3741 25.1828 25.8602 25.28C26.7902 25.469 27.7176 25.1224 28.6371 25.1198C29.286 25.1198 30.5734 25.5294 30.5077 26.367C30.4394 27.2467 29.2414 27.567 28.5347 27.7272C27.2683 28.0214 25.9539 28.0447 24.6779 27.7954C22.923 27.441 17.3086 24.6446 17.4295 28.4519C17.4426 28.893 17.6449 29.3026 17.7264 29.7359C17.7888 30.0399 17.7812 30.3541 17.7043 30.6548C17.6274 30.9554 17.4831 31.2347 17.2824 31.4715C17.0296 31.7646 16.6746 31.9505 16.2896 31.9914C15.9046 32.0324 15.5184 31.9253 15.2095 31.692C14.6552 31.2719 14.3741 30.5892 14.2007 29.917C13.9747 29.0348 13.7882 27.5906 12.8871 27.0628C11.626 26.3276 9.9236 27.8138 8.75976 28.1683C7.41726 28.5779 5.5178 29.0768 4.35132 28.0029C4.19042 27.8574 4.06389 27.678 3.98089 27.4777C3.69452 26.7373 4.16742 26.241 4.69023 25.9548C5.30762 25.6187 8.2711 25.8839 8.27898 25.0148C8.27898 24.3531 6.36638 24.1955 5.89874 24.164C4.80058 24.0931 3.6341 24.2034 2.6489 23.6126C1.37208 22.8459 1.0069 20.4828 3.23213 20.3698C3.51351 20.3575 3.79528 20.3823 4.07021 20.4434C6.08175 20.8212 8.06142 21.3523 9.99191 22.0319C10.8405 22.347 12.7583 22.93 12.3564 21.218C11.9807 19.5559 10.1732 19.1042 8.74136 18.7025C6.21926 17.9962 3.43706 18.3559 1.00953 17.429C0.760351 17.3391 0.53856 17.1865 0.365538 16.986C0.192517 16.7854 0.0741016 16.5438 0.021705 16.2842C-0.167453 15.2339 0.917577 14.7298 1.80557 14.8243C2.26533 14.8742 5.08168 16.2369 4.9582 14.8742C4.79006 13.2042 1.92905 13.7372 1.31428 12.2642C0.815117 11.0642 1.83972 9.77238 3.1034 9.82752C4.49056 9.88528 5.41534 11.1194 6.16146 12.1329C7.11776 13.4458 8.00049 14.6352 9.55317 15.3494C9.78327 15.4575 10.0385 15.5011 10.2914 15.4755C11.8914 15.2943 10.5121 13.157 10.0287 12.5268C8.74925 10.8411 7.24649 9.33126 6.00645 7.61402C5.48101 6.86831 4.90303 6.02546 5.14736 5.0907C5.4889 3.77783 6.85241 3.64654 7.94007 4.11392C9.54792 4.80449 10.4438 6.78167 11.0769 8.28359C11.2696 8.82847 11.5708 9.32867 11.9623 9.754C12.69 10.4603 13.6463 10.3369 14.1613 9.47042C15.7507 6.78692 10.8484 5.33226 10.9035 2.85619C10.9356 2.40618 11.1346 1.98437 11.4617 1.67348C11.7888 1.36259 12.2204 1.18506 12.6717 1.17572C13.8828 1.17572 13.9852 2.59624 14.8916 3.082C16.2657 3.80408 16.9093 1.59583 17.4321 0.76085C18.1809 -0.436485 19.6705 -0.173912 19.9621 1.22035C20.3299 2.98222 19.1083 4.55242 18.3543 6.03858C16.5757 9.53869 15.4644 13.2383 16.4679 17.1717C16.5522 17.4909 16.6711 17.8 16.8226 18.0933C16.9934 18.4373 17.2745 18.8496 17.7921 18.6369C17.9189 18.584 18.0327 18.5043 18.1257 18.4032C18.8835 17.5793 19.315 16.5077 19.3395 15.3888Z" fill="#00AD97"/>
<path d="M47.939 6.86833V13.5745C47.939 15.3337 46.7752 16.0295 45.0149 16.0295H42.7083C42.6185 16.041 42.5272 16.0318 42.4415 16.0027C42.3558 15.9736 42.2779 15.9252 42.2138 15.8614C42.1497 15.7975 42.101 15.7199 42.0715 15.6343C42.042 15.5488 42.0324 15.4576 42.0436 15.3678V5.07758C42.0325 4.98769 42.0421 4.89647 42.0716 4.81085C42.1011 4.72522 42.1497 4.64743 42.2138 4.58339C42.2779 4.51936 42.3557 4.47075 42.4414 4.44127C42.5271 4.41179 42.6183 4.40222 42.7083 4.41327H45.0149C46.7725 4.41327 47.939 5.10909 47.939 6.86833ZM44.9493 6.10424H43.9693V14.3386H44.9493C45.5798 14.3386 46.0133 14.1049 46.0133 13.2751V7.16767C46.0133 6.33794 45.5798 6.10424 44.9493 6.10424Z" fill="#00AD97"/>
<path d="M53.8505 16.0295H53.2542C53.1644 16.041 53.0731 16.0318 52.9874 16.0027C52.9017 15.9736 52.8238 15.9252 52.7597 15.8614C52.6956 15.7975 52.6469 15.7199 52.6174 15.6343C52.5879 15.5488 52.5783 15.4576 52.5895 15.3678V5.07758C52.5784 4.98769 52.588 4.89647 52.6175 4.81085C52.647 4.72522 52.6956 4.64743 52.7597 4.58339C52.8238 4.51936 52.9016 4.47075 52.9873 4.44127C53.0729 4.41179 53.1642 4.40222 53.2542 4.41327H53.8505C53.9405 4.40222 54.0317 4.41179 54.1174 4.44127C54.2031 4.47075 54.2809 4.51936 54.345 4.58339C54.4091 4.64743 54.4577 4.72522 54.4872 4.81085C54.5167 4.89647 54.5263 4.98769 54.5152 5.07758V15.3678C54.5264 15.4576 54.5168 15.5488 54.4873 15.6343C54.4578 15.7199 54.4091 15.7975 54.345 15.8614C54.2809 15.9252 54.203 15.9736 54.1173 16.0027C54.0316 16.0318 53.9403 16.041 53.8505 16.0295V16.0295Z" fill="#00AD97"/>
<path d="M64.9006 5.12749L62.9591 15.4335C62.9405 15.6095 62.853 15.771 62.7156 15.8827C62.5783 15.9944 62.4023 16.0472 62.2261 16.0295H61.3302C61.1543 16.0472 60.9786 15.9943 60.8417 15.8825C60.7047 15.7708 60.6178 15.6093 60.5999 15.4335L58.6557 5.12749C58.6251 5.0388 58.618 4.9437 58.635 4.85143C58.6521 4.75917 58.6927 4.67289 58.753 4.60098C58.8133 4.52908 58.8912 4.47401 58.9792 4.44111C59.0671 4.40822 59.162 4.39863 59.2547 4.41328H59.8695C59.9571 4.4054 60.0453 4.41516 60.129 4.44198C60.2127 4.4688 60.2902 4.51215 60.3568 4.56944C60.4235 4.62674 60.4779 4.69682 60.517 4.77554C60.556 4.85426 60.5788 4.94001 60.5841 5.02771L61.8294 13.0257L63.0747 5.02771C63.0799 4.94001 63.1028 4.85426 63.1418 4.77554C63.1809 4.69682 63.2353 4.62674 63.302 4.56944C63.3686 4.51215 63.4461 4.4688 63.5298 4.44198C63.6135 4.41516 63.7017 4.4054 63.7893 4.41328H64.3016C64.7613 4.41328 64.9952 4.66273 64.9006 5.12749Z" fill="#00AD97"/>
<path d="M73.4803 16.0295H69.6603C69.5707 16.0405 69.4796 16.031 69.3942 16.0016C69.3087 15.9723 69.2311 15.9239 69.167 15.8602C69.103 15.7965 69.0543 15.719 69.0246 15.6337C68.995 15.5484 68.985 15.4575 68.9957 15.3678V5.07758C68.9846 4.98769 68.9942 4.89647 69.0237 4.81085C69.0532 4.72522 69.1018 4.64743 69.1659 4.58339C69.23 4.51936 69.3078 4.47075 69.3935 4.44127C69.4791 4.41179 69.5704 4.40222 69.6603 4.41327H73.4304C73.5203 4.40222 73.6116 4.41179 73.6973 4.44127C73.7829 4.47075 73.8608 4.51936 73.9248 4.58339C73.9889 4.64743 74.0375 4.72522 74.067 4.81085C74.0965 4.89647 74.1061 4.98769 74.0951 5.07758V5.44256C74.1057 5.53224 74.0958 5.62316 74.0661 5.70845C74.0364 5.79374 73.9877 5.87119 73.9237 5.93492C73.8597 5.99865 73.782 6.047 73.6965 6.07633C73.6111 6.10567 73.5201 6.11521 73.4304 6.10424H70.9214V9.29189H72.9154C73.0043 9.28264 73.0941 9.29346 73.1782 9.32356C73.2624 9.35366 73.3387 9.40227 73.4015 9.46579C73.4643 9.52931 73.512 9.60612 73.5411 9.69055C73.5702 9.77498 73.5799 9.86487 73.5696 9.95357V10.3186C73.5807 10.4084 73.5711 10.4997 73.5416 10.5853C73.5121 10.6709 73.4635 10.7487 73.3994 10.8127C73.3353 10.8768 73.2575 10.9254 73.1718 10.9549C73.0861 10.9843 72.9949 10.9939 72.9049 10.9829H70.9109V14.3386H73.4698C73.5595 14.3276 73.6505 14.3371 73.7359 14.3665C73.8214 14.3958 73.8991 14.4441 73.9631 14.5079C74.0271 14.5716 74.0758 14.649 74.1055 14.7343C74.1352 14.8196 74.1451 14.9106 74.1345 15.0002V15.3678C74.1448 15.4565 74.135 15.5464 74.1059 15.6309C74.0768 15.7153 74.0291 15.7921 73.9663 15.8556C73.9035 15.9192 73.8272 15.9678 73.7431 15.9979C73.659 16.028 73.5692 16.0388 73.4803 16.0295V16.0295Z" fill="#00AD97"/>
<path d="M83.1618 13.7898C83.1301 13.9526 83.04 14.0983 82.9084 14.1993C82.7768 14.3004 82.6127 14.3499 82.4472 14.3386C82.2797 14.3505 82.1135 14.3015 81.9793 14.2007C81.8451 14.0998 81.7519 13.9539 81.7168 13.7898L80.1563 8.92691V15.3678C80.1669 15.4575 80.157 15.5484 80.1273 15.6337C80.0976 15.719 80.0489 15.7965 79.9849 15.8602C79.9209 15.9239 79.8432 15.9723 79.7577 16.0016C79.6723 16.031 79.5813 16.0405 79.4916 16.0295H79.0266C78.9369 16.0405 78.8459 16.031 78.7604 16.0016C78.6749 15.9723 78.5973 15.9239 78.5333 15.8602C78.4692 15.7965 78.4205 15.719 78.3909 15.6337C78.3612 15.5484 78.3513 15.4575 78.3619 15.3678V5.07758C78.3508 4.98769 78.3604 4.89647 78.3899 4.81085C78.4194 4.72522 78.468 4.64743 78.5321 4.58339C78.5962 4.51936 78.674 4.47075 78.7597 4.44127C78.8454 4.41179 78.9366 4.40222 79.0266 4.41327H79.6256C79.795 4.39838 79.9642 4.44558 80.1014 4.54605C80.2387 4.64653 80.3347 4.79344 80.3717 4.95942L82.4314 11.1667L84.5069 4.95942C84.5468 4.79504 84.6436 4.65005 84.7801 4.5501C84.9167 4.45015 85.0842 4.40168 85.253 4.41327H85.9177C86.0076 4.40222 86.0989 4.41179 86.1846 4.44127C86.2703 4.47075 86.3481 4.51936 86.4122 4.58339C86.4762 4.64743 86.5249 4.72522 86.5544 4.81085C86.5838 4.89647 86.5934 4.98769 86.5824 5.07758V15.3678C86.5935 15.4576 86.584 15.5488 86.5545 15.6343C86.525 15.7199 86.4763 15.7975 86.4122 15.8614C86.348 15.9252 86.2701 15.9736 86.1844 16.0027C86.0987 16.0318 86.0075 16.041 85.9177 16.0295H85.3923C85.3026 16.0405 85.2116 16.031 85.1261 16.0016C85.0406 15.9723 84.963 15.9239 84.8989 15.8602C84.8349 15.7965 84.7862 15.719 84.7566 15.6337C84.7269 15.5484 84.7169 15.4575 84.7276 15.3678V8.92691L83.1618 13.7898Z" fill="#00AD97"/>
<path d="M94.0884 4.2793H94.2224C95.9826 4.2793 97.1439 4.97774 97.1439 6.73698V13.7057C97.1439 15.4676 95.9826 16.1634 94.2224 16.1634H94.0884C92.3282 16.1634 91.167 15.4676 91.167 13.7057V6.73698C91.1722 4.96461 92.3282 4.2793 94.0884 4.2793ZM94.1567 14.4698C94.7873 14.4698 95.2076 14.2387 95.2076 13.4195V7.03369C95.2076 6.20396 94.7768 5.9834 94.1567 5.9834C93.5367 5.9834 93.0927 6.21446 93.0927 7.03369V13.409C93.0927 14.2387 93.5367 14.4698 94.1567 14.4698Z" fill="#00AD97"/>
<path d="M106.744 5.07752V5.4425C106.755 5.53218 106.745 5.6231 106.715 5.70839C106.685 5.79369 106.637 5.87113 106.573 5.93486C106.509 5.99859 106.431 6.04694 106.345 6.07627C106.26 6.10561 106.169 6.11515 106.079 6.10418H104.8V15.3678C104.811 15.4573 104.801 15.5482 104.772 15.6335C104.743 15.7188 104.694 15.7963 104.63 15.8601C104.567 15.9239 104.489 15.9723 104.404 16.0017C104.318 16.031 104.227 16.0405 104.138 16.0295H103.539C103.449 16.0404 103.358 16.0309 103.273 16.0016C103.187 15.9722 103.109 15.9239 103.045 15.8601C102.981 15.7964 102.933 15.719 102.903 15.6337C102.873 15.5484 102.863 15.4575 102.874 15.3678V6.10418H101.595C101.505 6.11524 101.414 6.10574 101.329 6.0764C101.243 6.04706 101.166 5.99865 101.102 5.93485C101.038 5.87106 100.99 5.79356 100.96 5.70824C100.931 5.62292 100.921 5.53204 100.933 5.4425V5.07752C100.921 4.98778 100.93 4.89659 100.959 4.81094C100.989 4.72529 101.037 4.64744 101.101 4.58334C101.165 4.51923 101.242 4.47057 101.328 4.44109C101.414 4.4116 101.505 4.40207 101.595 4.41321H106.079C106.169 4.40216 106.26 4.41174 106.346 4.44121C106.432 4.47069 106.51 4.5193 106.574 4.58334C106.638 4.64737 106.686 4.72516 106.716 4.81079C106.745 4.89642 106.755 4.98764 106.744 5.07752Z" fill="#00AD97"/>
<path d="M111.993 16.0295H111.402C111.312 16.0404 111.221 16.0309 111.135 16.0016C111.05 15.9722 110.972 15.9239 110.908 15.8601C110.844 15.7964 110.796 15.719 110.766 15.6337C110.736 15.5484 110.726 15.4575 110.737 15.3678V5.07752C110.726 4.98764 110.735 4.89642 110.765 4.81079C110.794 4.72516 110.843 4.64737 110.907 4.58334C110.971 4.5193 111.049 4.47069 111.135 4.44121C111.22 4.41174 111.312 4.40216 111.402 4.41321H112.001C112.09 4.40207 112.182 4.4116 112.267 4.44109C112.353 4.47057 112.43 4.51923 112.494 4.58334C112.558 4.64744 112.607 4.72529 112.636 4.81094C112.665 4.89659 112.674 4.98778 112.663 5.07752V15.3678C112.674 15.4581 112.664 15.5497 112.635 15.6357C112.605 15.7217 112.556 15.7997 112.491 15.8637C112.426 15.9276 112.347 15.9758 112.261 16.0046C112.175 16.0333 112.083 16.0419 111.993 16.0295V16.0295Z" fill="#00AD97"/>
<path d="M120.229 4.2793H120.36C122.12 4.2793 123.284 4.97774 123.284 6.73698V13.7057C123.284 15.4676 122.12 16.1634 120.36 16.1634H120.229C118.469 16.1634 117.305 15.4676 117.305 13.7057V6.73698C117.305 4.96461 118.469 4.2793 120.229 4.2793ZM120.294 14.4698C120.925 14.4698 121.345 14.2387 121.345 13.4195V7.03369C121.345 6.20396 120.912 5.9834 120.294 5.9834C119.677 5.9834 119.244 6.21446 119.244 7.03369V13.409C119.233 14.2387 119.664 14.4698 120.294 14.4698Z" fill="#00AD97"/>
<path d="M128.965 16.0295H128.531C128.442 16.0405 128.351 16.031 128.265 16.0017C128.18 15.9723 128.102 15.9239 128.038 15.8601C127.975 15.7963 127.926 15.7188 127.897 15.6335C127.868 15.5482 127.858 15.4573 127.869 15.3678V5.07752C127.858 4.98778 127.867 4.89659 127.896 4.81094C127.925 4.72529 127.973 4.64744 128.037 4.58334C128.101 4.51923 128.179 4.47057 128.265 4.44109C128.35 4.4116 128.441 4.40207 128.531 4.41321H129.23C129.4 4.40187 129.568 4.45108 129.704 4.55207C129.841 4.65305 129.937 4.79926 129.976 4.96462L132.235 11.6051V5.07752C132.224 4.98764 132.234 4.89642 132.264 4.81079C132.293 4.72516 132.342 4.64737 132.406 4.58334C132.47 4.5193 132.548 4.47069 132.633 4.44121C132.719 4.41174 132.81 4.40216 132.9 4.41321H133.331C133.421 4.40216 133.512 4.41174 133.598 4.44121C133.684 4.47069 133.761 4.5193 133.825 4.58334C133.89 4.64737 133.938 4.72516 133.968 4.81079C133.997 4.89642 134.007 4.98764 133.996 5.07752V15.3678C134.006 15.4575 133.996 15.5484 133.967 15.6337C133.937 15.719 133.888 15.7964 133.824 15.8601C133.76 15.9239 133.683 15.9722 133.597 16.0016C133.512 16.0309 133.421 16.0404 133.331 16.0295H132.735C132.565 16.0417 132.397 15.9935 132.26 15.8935C132.123 15.7935 132.026 15.6482 131.986 15.4833L129.621 8.47785V15.3678C129.632 15.4567 129.622 15.5469 129.593 15.6315C129.563 15.7162 129.516 15.7931 129.452 15.8567C129.389 15.9203 129.313 15.9688 129.228 15.9987C129.144 16.0286 129.054 16.0391 128.965 16.0295Z" fill="#00AD97"/>
<path d="M51.8168 24.5159C51.8165 24.5548 51.8085 24.5932 51.7931 24.6288C51.7747 24.6682 51.759 24.705 51.7406 24.7391C51.6699 24.8718 51.591 24.9998 51.5042 25.1225C51.4096 25.259 51.3045 25.3982 51.1915 25.54C51.0785 25.6818 50.9603 25.8025 50.8395 25.9469C50.7186 26.0914 50.603 26.1938 50.4953 26.2935C50.3876 26.3933 50.2983 26.4774 50.18 26.5824C50.0647 26.6879 49.9437 26.7869 49.8175 26.8791C49.6976 26.9679 49.5701 27.0461 49.4366 27.1128C49.3237 27.1719 49.1987 27.2042 49.0714 27.2073C48.9969 27.2025 48.9244 27.1819 48.8586 27.1469C48.6708 27.0549 48.5225 26.8983 48.4408 26.7058C48.3915 26.6024 48.3502 26.4953 48.3174 26.3855C48.2879 26.2809 48.2642 26.1749 48.2464 26.0677C48.2307 25.9601 48.2175 25.8446 48.2044 25.7238C48.1913 25.603 48.1807 25.4612 48.1676 25.3194C47.8184 25.9704 47.3598 26.5566 46.812 27.0524C46.3529 27.5187 45.7322 27.7913 45.078 27.8139C44.9964 27.8125 44.917 27.7868 44.85 27.74C44.7831 27.6932 44.7316 27.6275 44.7023 27.5513C44.6201 27.3883 44.5761 27.2087 44.5736 27.0261C44.5666 26.8369 44.587 26.6477 44.634 26.4642C44.7456 26.1159 44.8808 25.7755 45.0386 25.4454C45.196 25.1234 45.3815 24.8159 45.593 24.5264C45.6639 24.4267 45.7401 24.3295 45.8189 24.2324C45.8977 24.1352 45.987 24.0381 46.0816 23.9409C46.2317 23.7721 46.4093 23.63 46.6071 23.5208C46.878 23.3981 47.1744 23.3423 47.4714 23.358C47.5417 23.3615 47.6098 23.3835 47.6689 23.4217C47.7279 23.46 47.7758 23.5132 47.8077 23.5759C47.9053 23.7318 47.9755 23.9032 48.0152 24.0827C48.0588 24.2376 48.0835 24.3971 48.0888 24.5579C48.1282 24.4214 48.1676 24.2954 48.2018 24.1431C48.2359 23.9908 48.2622 23.8569 48.2885 23.7046C48.3147 23.5523 48.3358 23.3974 48.3568 23.2319C48.3778 23.0665 48.3962 22.888 48.4146 22.7068C48.4146 22.6569 48.4146 22.5939 48.4303 22.5151C48.4461 22.4364 48.4435 22.3445 48.4514 22.2526C48.4697 22.0346 48.4855 21.8508 48.5013 21.7011C48.5064 21.6015 48.5295 21.5037 48.5696 21.4123C48.6057 21.3529 48.658 21.3051 48.7203 21.2744C48.7827 21.2437 48.8525 21.2314 48.9216 21.239C49.0069 21.2402 49.0909 21.259 49.1686 21.2942C49.2553 21.3283 49.2973 21.3755 49.2973 21.4359C49.2956 21.4906 49.2895 21.5451 49.2789 21.5987C49.2658 21.6749 49.2474 21.772 49.2264 21.8928C49.2054 22.0136 49.1738 22.1554 49.137 22.3392C49.1003 22.523 49.0582 22.7304 49.0136 22.972L48.9348 23.4315C48.9111 23.5707 48.8901 23.6941 48.8691 23.8122C48.8349 24.0381 48.806 24.2507 48.7824 24.4477C48.7604 24.6482 48.749 24.8498 48.7482 25.0516C48.7482 25.0726 48.7482 25.1251 48.7482 25.2065C48.7482 25.2879 48.7482 25.3877 48.764 25.5006C48.7797 25.6135 48.7824 25.7316 48.7955 25.8577C48.8087 25.9837 48.827 26.0993 48.8481 26.2043C48.8669 26.2939 48.8933 26.3817 48.9269 26.4669C48.9584 26.5351 48.9952 26.5719 49.0372 26.5719C49.0903 26.5729 49.1434 26.5667 49.1948 26.5535C49.2438 26.541 49.2914 26.5234 49.3367 26.501C49.3893 26.4747 49.4418 26.4432 49.5022 26.4065L49.7098 26.2699C49.8012 26.2096 49.889 26.1438 49.9725 26.073C50.0644 25.9942 50.159 25.9128 50.2536 25.8235C50.3482 25.7343 50.4401 25.6476 50.5295 25.561L50.7659 25.3142C50.9314 25.1356 51.0917 24.9571 51.2441 24.789C51.3964 24.621 51.5304 24.4582 51.6486 24.3348C51.6486 24.3348 51.6775 24.3164 51.7143 24.3111H51.7748C51.7823 24.311 51.7896 24.3136 51.7954 24.3184C51.8012 24.3232 51.805 24.33 51.8063 24.3374C51.8139 24.3585 51.8184 24.3806 51.8194 24.403C51.8208 24.4301 51.8208 24.4573 51.8194 24.4844C51.8168 24.4687 51.8168 24.4949 51.8168 24.5159ZM47.7368 25.1829C47.6693 25.1692 47.6098 25.1296 47.5712 25.0726C47.5346 25.0174 47.5154 24.9524 47.5161 24.8862C47.5184 24.8034 47.5263 24.721 47.5397 24.6393C47.5541 24.5525 47.5629 24.4648 47.566 24.3768C47.5643 24.3175 47.55 24.2593 47.5239 24.2061C47.4975 24.1441 47.4631 24.0858 47.4215 24.0328C47.3833 23.9789 47.3362 23.9318 47.2822 23.8936C47.2389 23.8587 47.1855 23.8385 47.1299 23.8359C46.9827 23.8359 46.7805 23.9908 46.5282 24.3006C46.3995 24.4582 46.2813 24.6078 46.1736 24.7549C46.0659 24.9019 45.9687 25.0463 45.8793 25.1881C45.79 25.3299 45.7007 25.4848 45.6324 25.6135C45.5641 25.7422 45.5036 25.8524 45.4563 25.9548C45.317 26.213 45.2329 26.4974 45.2094 26.7898C45.2094 27.0524 45.2961 27.1784 45.4721 27.1784C45.7064 27.1503 45.9287 27.0596 46.1158 26.9158C46.3502 26.7622 46.5693 26.5864 46.7699 26.3907C46.9276 26.2279 47.0616 26.0861 47.1667 25.9706C47.2717 25.8551 47.3584 25.7632 47.4294 25.6923C47.5555 25.5379 47.659 25.3664 47.7368 25.1829V25.1829Z" fill="#00AD97"/>
<path d="M54.888 24.6261C54.8636 24.6752 54.8297 24.719 54.7882 24.7548C54.7506 24.7877 54.7069 24.8127 54.6595 24.8283C54.6146 24.8436 54.5676 24.8515 54.5202 24.852C54.4732 24.8503 54.4264 24.8432 54.381 24.8309C54.3267 24.8171 54.2713 24.8083 54.2155 24.8047C54.0805 24.8112 53.9478 24.8423 53.824 24.8966C53.6619 24.9602 53.5054 25.0375 53.3564 25.1277C53.1956 25.2236 53.0412 25.3297 52.894 25.4454C52.7572 25.5497 52.6297 25.6656 52.513 25.792C52.4552 25.8576 52.3975 25.9285 52.3344 26.0047C52.2713 26.0808 52.2109 26.1674 52.1531 26.2515C52.0944 26.3351 52.0417 26.4229 51.9955 26.514C51.9516 26.5971 51.918 26.6853 51.8957 26.7766C51.8884 26.8315 51.8884 26.8871 51.8957 26.942C51.8957 27.0086 51.9009 27.0795 51.9114 27.1547C51.9114 27.2309 51.9298 27.3096 51.9377 27.3937C51.948 27.472 51.9533 27.551 51.9535 27.63C51.9535 27.6746 51.9535 27.7166 51.9535 27.756C51.9534 27.7949 51.949 27.8336 51.9403 27.8715C51.9311 27.902 51.9149 27.9298 51.893 27.9529C51.8661 27.984 51.8352 28.0114 51.8011 28.0343C51.7641 28.0603 51.7244 28.0823 51.6829 28.1C51.6438 28.1167 51.6019 28.1256 51.5594 28.1263C51.5259 28.1237 51.4935 28.1133 51.4648 28.0959C51.4361 28.0786 51.4118 28.0548 51.3939 28.0265C51.3441 27.9453 51.3078 27.8566 51.2861 27.7639C51.2551 27.6337 51.2357 27.501 51.2283 27.3674C51.2283 27.2151 51.21 27.0497 51.21 26.8711C51.21 26.8186 51.21 26.7399 51.21 26.6374C51.21 26.535 51.21 26.43 51.21 26.3224C51.21 26.2147 51.21 26.1176 51.2231 26.0309C51.2362 25.9443 51.2231 25.8917 51.2231 25.8734C51.2231 25.855 51.2231 25.7605 51.2231 25.6791C51.2231 25.5977 51.2231 25.511 51.2389 25.4165C51.2546 25.322 51.2546 25.2222 51.2651 25.1224C51.2756 25.0226 51.2861 24.9281 51.2967 24.8598C51.2967 24.8257 51.2967 24.7758 51.3124 24.7128C51.3282 24.6498 51.3124 24.5815 51.3334 24.5132C51.3544 24.445 51.3466 24.3793 51.3545 24.3163C51.3603 24.2694 51.369 24.2229 51.3807 24.1771C51.3923 24.1349 51.4109 24.0949 51.4359 24.059C51.468 24.013 51.504 23.97 51.5436 23.9303C51.5859 23.8893 51.6326 23.8532 51.6829 23.8227C51.7326 23.7948 51.7887 23.7803 51.8457 23.7806C51.8959 23.781 51.9452 23.7927 51.9902 23.8148C52.0245 23.8344 52.0548 23.8602 52.0796 23.8909C52.1003 23.9184 52.1155 23.9496 52.1242 23.9828C52.1334 24.0108 52.1379 24.0401 52.1374 24.0695C52.1347 24.0969 52.1303 24.1241 52.1242 24.1509C52.1242 24.1903 52.1006 24.2375 52.0822 24.2927C52.0638 24.3478 52.048 24.4056 52.0323 24.4686L51.9797 24.6445C51.9666 24.7023 51.9535 24.7522 51.9403 24.7968C51.932 24.8269 51.9267 24.8576 51.9246 24.8887C51.9269 24.9307 51.9269 24.9728 51.9246 25.0147C51.9246 25.0778 51.9114 25.1513 51.9035 25.2301C51.8957 25.3088 51.8904 25.3955 51.8825 25.4926C51.8746 25.5898 51.8825 25.6581 51.8825 25.7237V25.7867C51.8811 25.8051 51.8811 25.8235 51.8825 25.8419C51.9859 25.7123 52.0988 25.5784 52.2214 25.4401C52.3475 25.3009 52.4841 25.1775 52.6181 25.0279C52.7566 24.8916 52.9022 24.7628 53.0542 24.6419C53.1987 24.5227 53.3515 24.4139 53.5114 24.3163C53.6583 24.2269 53.8142 24.153 53.9764 24.0957C54.1221 24.0428 54.2758 24.0152 54.4309 24.0143C54.5066 24.0153 54.5811 24.0332 54.649 24.0669C54.7082 24.0976 54.7615 24.1385 54.8066 24.1876C54.8458 24.2278 54.877 24.275 54.8985 24.3268C54.9164 24.3647 54.9262 24.4058 54.9274 24.4476C54.926 24.5091 54.9126 24.5697 54.888 24.6261Z" fill="#00AD97"/>
<path d="M60.0531 25.2563C60.0455 25.3425 60.0166 25.4255 59.9691 25.4979C59.9025 25.6158 59.8279 25.7289 59.7458 25.8366C59.6538 25.9626 59.5435 26.0992 59.4226 26.2383C59.3018 26.3775 59.1599 26.5245 59.0364 26.6689C58.9129 26.8134 58.7133 26.9972 58.5399 27.1521C58.3626 27.3119 58.1767 27.4618 57.9829 27.6011C57.6875 27.8538 57.3196 28.0063 56.932 28.037C56.7834 28.0451 56.6349 28.0188 56.4982 27.96C56.3614 27.9013 56.2402 27.8117 56.1439 27.6982C55.9504 27.4573 55.8196 27.1722 55.7629 26.8685C55.6962 26.5428 55.6627 26.2111 55.6631 25.8786C55.6683 25.6565 55.6849 25.4347 55.713 25.2143C55.7288 25.062 55.7472 24.9333 55.7629 24.8231C55.7747 24.7343 55.7932 24.6465 55.8181 24.5605C55.8622 24.4227 55.9486 24.3024 56.065 24.2165C56.1773 24.1206 56.3194 24.0668 56.467 24.0642C56.5406 24.0642 56.58 24.1351 56.58 24.2769C56.5784 24.3843 56.5688 24.4914 56.5511 24.5972L56.4959 24.9543C56.4591 25.1749 56.4329 25.3718 56.4171 25.5451C56.4005 25.696 56.3917 25.8476 56.3908 25.9994C56.3914 26.2879 56.4312 26.575 56.509 26.8527C56.5852 27.1468 56.7271 27.2913 56.9294 27.2913C57.1846 27.2778 57.4322 27.2001 57.6492 27.0654C57.7913 26.9852 57.9289 26.8976 58.0617 26.8029C58.204 26.7035 58.3408 26.5966 58.4716 26.4825C58.6134 26.367 58.7474 26.2488 58.8735 26.1307C58.9996 26.0125 59.1231 25.8891 59.2492 25.7631C59.3753 25.637 59.4857 25.5215 59.5829 25.4138C59.6801 25.3062 59.7615 25.2038 59.8456 25.1119L59.8797 25.0489C59.8955 25.0174 59.9113 25.0042 59.9244 25.0042C59.9344 25.0037 59.9444 25.0056 59.9535 25.0097C59.9627 25.0138 59.9707 25.02 59.9769 25.0279C59.9909 25.0496 60.0032 25.0725 60.0137 25.0961C60.0411 25.145 60.0547 25.2003 60.0531 25.2563V25.2563ZM57.313 21.856C57.3175 22.0222 57.2677 22.1854 57.1711 22.3207C57.1248 22.3843 57.0633 22.4353 56.9921 22.4688C56.9209 22.5023 56.8424 22.5173 56.7639 22.5124C56.638 22.5109 56.5127 22.4942 56.3908 22.4625C56.2568 22.4284 56.1912 22.3759 56.1912 22.2997C56.1922 22.1595 56.2362 22.0229 56.3173 21.9085C56.3994 21.7882 56.5048 21.6855 56.6273 21.6065C56.6833 21.5666 56.7467 21.538 56.8138 21.5225C56.9396 21.516 57.0652 21.5375 57.1816 21.5855C57.2286 21.6117 57.2664 21.6517 57.2899 21.7001C57.3133 21.7485 57.3214 21.8029 57.313 21.856V21.856Z" fill="#00AD97"/>
<path d="M65.6492 26.0808C65.6476 26.128 65.6321 26.1737 65.6045 26.2121C65.5718 26.2669 65.532 26.3172 65.4863 26.3618C65.4325 26.4153 65.3746 26.4645 65.3129 26.5088C65.2489 26.5569 65.1813 26.5999 65.1106 26.6375C64.954 26.7188 64.7869 26.778 64.6141 26.8134C64.4481 26.8465 64.2787 26.8588 64.1096 26.8501C63.9806 26.8433 63.8536 26.8149 63.7339 26.7661C63.4683 26.6595 63.2507 26.4597 63.1218 26.2042C63.0497 26.0604 63.0094 25.9028 63.0036 25.7421C62.9911 25.77 62.977 25.7971 62.9616 25.8235L62.8801 25.9863L62.7514 26.2488L62.5622 26.6296C62.486 26.7766 62.4046 26.9237 62.3179 27.0654C62.2312 27.2072 62.1471 27.3464 62.0552 27.4751C61.9632 27.6037 61.8923 27.7193 61.8161 27.8217C61.7399 27.9241 61.6795 28.0107 61.6269 28.0842C61.571 28.1619 61.5057 28.2325 61.4325 28.2943C61.3741 28.3407 61.3107 28.3803 61.2434 28.4125C61.194 28.4362 61.142 28.4538 61.0884 28.465C61.0534 28.4677 61.0182 28.4677 60.9833 28.465C60.9495 28.4644 60.9163 28.4563 60.8861 28.4413C60.8506 28.4256 60.8163 28.4071 60.7836 28.3862C60.7525 28.3634 60.7243 28.337 60.6995 28.3074C60.6761 28.282 60.659 28.2514 60.6496 28.2182C60.6496 28.1341 60.6417 28.0396 60.626 27.9346C60.6128 27.8295 60.5918 27.7114 60.5656 27.5801C60.5393 27.4488 60.4999 27.3018 60.4526 27.1416C60.4053 26.9814 60.3449 26.8081 60.2766 26.6165C60.1412 26.2717 60.0357 25.9159 59.9613 25.553C59.9095 25.2935 59.8805 25.0299 59.8746 24.7653C59.8681 24.6274 59.9163 24.4925 60.0086 24.3898C60.056 24.3418 60.113 24.3043 60.176 24.2798C60.2389 24.2554 60.3063 24.2446 60.3738 24.248C60.4187 24.2444 60.4638 24.2524 60.5048 24.2713C60.5457 24.2901 60.5811 24.3192 60.6076 24.3557C60.6537 24.4353 60.6764 24.5263 60.6733 24.6183C60.6728 24.7019 60.6605 24.785 60.6365 24.8651C60.6112 24.9449 60.5988 25.0282 60.5997 25.1119C60.5997 25.1565 60.5997 25.2248 60.6155 25.3193C60.6312 25.4139 60.6417 25.5163 60.6601 25.6266C60.6785 25.7368 60.7048 25.8524 60.7311 25.9679C60.7573 26.0834 60.7862 26.1832 60.8151 26.2699C60.8729 26.43 60.9228 26.5876 60.9675 26.7399C61.0122 26.8922 61.049 27.0392 61.0831 27.1679C61.1173 27.2965 61.1409 27.4068 61.1646 27.4987C61.1778 27.5617 61.1945 27.6239 61.2145 27.6851C61.2355 27.6851 61.2696 27.6641 61.3143 27.6169C61.3681 27.5589 61.4181 27.4975 61.4641 27.4331C61.5166 27.3569 61.577 27.2729 61.6374 27.1705C61.6979 27.0681 61.7609 26.9788 61.8187 26.8816C61.8765 26.7845 61.9291 26.6952 61.9764 26.6059C62.0236 26.5167 62.0657 26.4432 62.0972 26.3828C62.1287 26.3224 62.1839 26.2042 62.2338 26.0887C62.2837 25.9732 62.3337 25.855 62.3836 25.7316C62.4335 25.6082 62.4781 25.4874 62.5176 25.3692C62.557 25.2511 62.5885 25.146 62.6121 25.0568C62.635 24.9495 62.6868 24.8505 62.7619 24.7706C62.8053 24.7363 62.855 24.7111 62.9082 24.6962C62.9614 24.6813 63.0171 24.6771 63.0719 24.6839C63.1158 24.6844 63.1594 24.6924 63.2006 24.7075C63.2464 24.7233 63.2884 24.7483 63.3241 24.7811C63.3615 24.8171 63.3918 24.8599 63.4134 24.9071C63.4378 24.9662 63.4494 25.0297 63.4476 25.0935C63.4489 25.2793 63.4718 25.4644 63.5159 25.6449C63.5508 25.7847 63.6085 25.9178 63.6867 26.0388C63.7546 26.139 63.8445 26.2225 63.9494 26.283C64.0483 26.3387 64.1591 26.3701 64.2725 26.3749C64.4022 26.3796 64.5319 26.3681 64.6587 26.3407C64.7906 26.3151 64.9186 26.2728 65.0397 26.2147L65.3365 26.065C65.4011 26.0266 65.4743 26.0049 65.5493 26.002C65.615 26.0047 65.6492 26.0309 65.6492 26.0808Z" fill="#00AD97"/>
<path d="M69.2827 25.9023C69.2768 26.0161 69.2395 26.126 69.175 26.22C69.0832 26.3567 68.9795 26.485 68.865 26.6034C68.7086 26.7674 68.539 26.9185 68.358 27.055C68.1787 27.1898 67.9889 27.3101 67.7905 27.4147C67.6007 27.5132 67.4019 27.5932 67.1968 27.6537C67.0084 27.7104 66.8129 27.7405 66.6161 27.7429C66.4254 27.7535 66.2347 27.721 66.0582 27.6479C65.8817 27.5747 65.724 27.4627 65.5968 27.3202C65.3339 26.9627 65.2063 26.5235 65.2369 26.0808C65.2373 25.9048 65.2532 25.729 65.2842 25.5557C65.3155 25.3773 65.3612 25.2017 65.4208 25.0306C65.48 24.849 65.5556 24.6732 65.6467 24.5054C65.7359 24.3419 65.8415 24.188 65.962 24.0459C66.0382 23.9592 66.1222 23.8726 66.2247 23.7833C66.3175 23.6923 66.4196 23.6113 66.5295 23.5418C66.6437 23.4694 66.7663 23.4112 66.8946 23.3685C67.0345 23.3225 67.1809 23.2994 67.3281 23.3002C67.4325 23.2993 67.5357 23.3217 67.6302 23.3658C67.7148 23.4071 67.7914 23.4631 67.8562 23.5313C67.9168 23.5968 67.964 23.6735 67.9954 23.7571C68.028 23.8353 68.045 23.9192 68.0453 24.0039C68.0432 24.1878 67.9954 24.3683 67.9061 24.529C67.8012 24.7211 67.6703 24.8978 67.5173 25.0542C67.3309 25.2458 67.1288 25.4215 66.913 25.5793C66.6801 25.7544 66.4174 25.9294 66.1249 26.1045L66.0066 26.178C65.9891 26.1881 65.9745 26.2027 65.9644 26.2202C65.9543 26.2377 65.9489 26.2575 65.9488 26.2778C65.9494 26.3662 65.96 26.4543 65.9804 26.5403C66.0017 26.6359 66.0438 26.7256 66.1038 26.8029C66.1661 26.8849 66.2472 26.9506 66.3403 26.9946C66.4586 27.0494 66.5883 27.0755 66.7186 27.0708C66.921 27.0696 67.1221 27.0377 67.315 26.9762C67.5221 26.9113 67.7213 26.8232 67.9087 26.7137C68.1087 26.5989 68.2977 26.4662 68.4736 26.3172C68.6564 26.1637 68.8276 25.997 68.9859 25.8183C69.0752 25.7211 69.1461 25.6712 69.1987 25.6712C69.2146 25.6714 69.23 25.677 69.2424 25.687C69.2548 25.697 69.2634 25.7109 69.267 25.7264C69.2812 25.7839 69.2865 25.8432 69.2827 25.9023V25.9023ZM67.3413 24.1142C67.3418 24.0849 67.3326 24.0562 67.315 24.0328C67.2997 24.0076 67.2791 23.9861 67.2546 23.9698C67.2321 23.9515 67.2062 23.9381 67.1784 23.9304C67.1568 23.9207 67.1336 23.9154 67.1101 23.9146C66.9744 23.9195 66.8435 23.9653 66.7344 24.0459C66.5935 24.1461 66.4716 24.2706 66.3744 24.4135C66.2535 24.5851 66.1546 24.7712 66.0802 24.9675C65.9948 25.1924 65.9374 25.427 65.9094 25.666C65.9488 25.6424 65.9988 25.6056 66.0644 25.5583L66.272 25.4008L66.4927 25.2275C66.5662 25.1697 66.6345 25.1146 66.6923 25.0647C66.8032 24.973 66.9093 24.8758 67.0102 24.7732C67.0833 24.7012 67.1501 24.623 67.2099 24.5395C67.2543 24.475 67.2888 24.4042 67.3124 24.3295C67.3315 24.2593 67.3412 24.1869 67.3413 24.1142V24.1142Z" fill="#00AD97"/>
<path d="M77.266 24.2455C77.266 24.2927 77.266 24.3479 77.266 24.4109C77.266 24.4739 77.266 24.5448 77.266 24.6262C77.266 24.7076 77.266 24.7838 77.2476 24.8678C77.2292 24.9518 77.2319 25.0385 77.224 25.1304C77.2161 25.2223 77.2082 25.2984 77.203 25.3667C77.1977 25.4349 77.203 25.4927 77.203 25.54C77.1838 25.9348 77.1434 26.3284 77.0821 26.7189C77.0208 27.1198 76.9446 27.5031 76.8535 27.869C76.7287 28.4195 76.5101 28.9444 76.2073 29.4208C76.0862 29.6245 75.9133 29.7924 75.706 29.9073C75.4987 30.0221 75.2646 30.0799 75.0276 30.0746C74.6863 30.0723 74.3485 30.0055 74.0319 29.8777C73.7177 29.764 73.4312 29.585 73.1912 29.3525C73.0944 29.2606 73.0238 29.1446 72.9863 29.0164C72.9899 28.9332 73.0114 28.8517 73.0494 28.7775C73.094 28.6909 73.144 28.6488 73.1991 28.6488C73.2156 28.6491 73.2317 28.6539 73.2456 28.6627C73.2595 28.6715 73.2707 28.684 73.2779 28.6987C73.354 28.8137 73.4421 28.9201 73.5407 29.0164C73.944 29.3569 74.4608 29.5331 74.9882 29.5101C75.1098 29.5072 75.229 29.4754 75.3359 29.4175C75.4427 29.3595 75.5343 29.2769 75.603 29.1766C75.6925 29.0669 75.7717 28.9491 75.8395 28.8248C75.9083 28.6975 75.9689 28.566 76.0207 28.4309C76.0759 28.2944 76.1232 28.1683 76.1652 28.0134C76.2073 27.8585 76.244 27.7246 76.2782 27.5775L76.3412 27.252C76.357 27.1706 76.3675 27.1154 76.3701 27.0892C76.3701 26.971 76.3938 26.8581 76.399 26.7504C76.4041 26.6423 76.4146 26.5345 76.4306 26.4275C76.3535 26.4642 76.1932 26.5561 75.9498 26.7032C75.8079 26.7898 75.6871 26.8686 75.561 26.9369C75.4349 27.0051 75.3403 27.0682 75.2483 27.1207C75.0475 27.2385 74.8385 27.3421 74.6231 27.4305C74.4419 27.5168 74.2455 27.5668 74.0451 27.5775C73.9256 27.5817 73.8071 27.5551 73.7009 27.5004C73.5946 27.4457 73.5042 27.3647 73.4382 27.2651C73.2951 27.0508 73.2209 26.798 73.2254 26.5404C73.2276 26.3219 73.2487 26.104 73.2884 25.8892C73.3121 25.7684 73.3331 25.6555 73.3568 25.5505C73.3804 25.4455 73.4067 25.3483 73.4356 25.2564C73.4645 25.1645 73.496 25.0542 73.5328 24.9256L73.6694 24.4818C73.6937 24.3999 73.7245 24.32 73.7613 24.2429C73.792 24.1802 73.8309 24.122 73.8769 24.0696C73.9198 24.0249 73.9718 23.99 74.0293 23.9672C74.0979 23.9445 74.1699 23.9338 74.2421 23.9357C74.2843 23.9368 74.3253 23.9504 74.3599 23.9747C74.3944 23.999 74.4211 24.0329 74.4365 24.0722C74.4789 24.1533 74.5014 24.2433 74.5022 24.3348C74.5029 24.387 74.4902 24.4385 74.4654 24.4844L74.405 24.5816C74.3814 24.6236 74.3498 24.6761 74.3104 24.7365C74.271 24.7969 74.2395 24.8494 74.2185 24.8888C74.2006 24.9184 74.1865 24.9502 74.1764 24.9833C74.1528 25.0516 74.1344 25.1093 74.1186 25.1592L74.0713 25.2853L74.0346 25.4034C74.0188 25.4507 74.003 25.5032 73.9847 25.5636C73.9508 25.672 73.9245 25.7825 73.9058 25.8945C73.8895 25.9987 73.8816 26.104 73.8822 26.2095C73.8868 26.3468 73.9098 26.4828 73.9505 26.6139C73.9978 26.7793 74.0608 26.8607 74.1423 26.8607C74.45 26.8469 74.7522 26.7747 75.0329 26.648C75.3745 26.5079 75.6932 26.3176 75.9787 26.0835C76.2193 25.9109 76.3987 25.6663 76.491 25.3851C76.504 25.3361 76.5119 25.286 76.5146 25.2354C76.5146 25.1671 76.5146 25.0936 76.5304 25.0096C76.5462 24.9256 76.5304 24.8415 76.5304 24.747C76.5304 24.6525 76.5304 24.5737 76.5304 24.4844C76.5304 24.3952 76.5304 24.3295 76.5435 24.2639C76.5482 24.2133 76.557 24.1633 76.5698 24.1142C76.6434 23.8516 76.759 23.7308 76.9219 23.7308C77.0847 23.7308 77.1688 23.7702 77.2056 23.8464C77.2525 23.974 77.2731 24.1097 77.266 24.2455V24.2455Z" fill="#00AD97"/>
<path d="M84.2314 24.2901C84.2295 24.3453 84.2123 24.399 84.1815 24.445C84.1445 24.5061 84.1014 24.5633 84.0528 24.6157C83.9967 24.6762 83.9361 24.7324 83.8715 24.7837C83.8058 24.8362 83.7375 24.8861 83.6718 24.9334C83.6061 24.9806 83.5404 25.02 83.48 25.0542C83.4196 25.0883 83.3723 25.1145 83.3329 25.1329C83.24 25.1684 83.1442 25.1956 83.0465 25.2143C82.9283 25.238 82.8048 25.2563 82.6761 25.2747L82.2978 25.3141C82.1769 25.3141 82.0719 25.3141 81.9878 25.3141C81.9419 25.3126 81.8962 25.3074 81.8512 25.2984C81.7934 25.2984 81.733 25.2721 81.6699 25.2563C81.6111 25.2411 81.5533 25.2227 81.4965 25.2012C81.4539 25.1857 81.4139 25.1636 81.3783 25.1356C81.4019 25.2406 81.4256 25.3482 81.4439 25.4559C81.4642 25.565 81.4739 25.6758 81.4729 25.7867C81.4723 25.8493 81.4661 25.9117 81.4545 25.9732C81.4426 26.0468 81.4259 26.1196 81.4046 26.1911C81.3835 26.2646 81.3599 26.3355 81.3362 26.4038C81.3145 26.4627 81.2882 26.5197 81.2574 26.5745C81.1895 26.6904 81.114 26.8018 81.0315 26.9079C80.9538 27.0096 80.8658 27.1029 80.7688 27.1863C80.6671 27.2757 80.5581 27.3565 80.443 27.4278C80.3102 27.5106 80.1714 27.5834 80.0279 27.6458C79.8672 27.716 79.6987 27.7671 79.5261 27.7981C79.3525 27.8277 79.1768 27.8426 79.0007 27.8427C78.8896 27.8443 78.7812 27.8082 78.6933 27.7403C78.6001 27.6699 78.523 27.5804 78.4673 27.4777C78.4029 27.3544 78.356 27.2227 78.3281 27.0865C78.2962 26.9336 78.2804 26.7779 78.2808 26.6217C78.2775 26.5701 78.2775 26.5184 78.2808 26.4668C78.287 26.4033 78.2966 26.3402 78.3097 26.2777C78.3097 26.2147 78.336 26.1517 78.3491 26.0939C78.3598 26.0432 78.3739 25.9932 78.3912 25.9443C78.4383 25.8072 78.4936 25.6731 78.5567 25.5425C78.6302 25.3929 78.7169 25.238 78.8194 25.0804C78.9187 24.9192 79.0275 24.764 79.1452 24.6157C79.2588 24.4698 79.3845 24.3336 79.5209 24.2087C79.6433 24.0937 79.7812 23.9965 79.9307 23.9198C80.0626 23.8494 80.2094 23.8116 80.3589 23.8096C80.3985 23.8084 80.4379 23.8156 80.4745 23.8306C80.5016 23.8453 80.5264 23.8639 80.5481 23.8857C80.5689 23.908 80.5882 23.9317 80.6059 23.9566C80.6235 23.9832 80.6428 24.0087 80.6637 24.0327C80.6676 24.0396 80.6734 24.0452 80.6804 24.0489C80.6873 24.0526 80.6952 24.0543 80.7031 24.0538C80.7312 24.0529 80.7588 24.0466 80.7845 24.0354C80.8212 24.0244 80.8593 24.0191 80.8975 24.0196C80.9732 24.0294 81.043 24.0657 81.0945 24.122C81.1734 24.1903 81.2548 24.2664 81.3389 24.3478C81.4229 24.4292 81.5096 24.5054 81.6016 24.5736C81.6632 24.6322 81.7428 24.6683 81.8275 24.6761H82.0719L82.3346 24.6603L82.5973 24.634C82.684 24.634 82.7628 24.6104 82.8337 24.5947L82.973 24.5579L83.2357 24.4896L83.5431 24.403L83.8426 24.3163L84.0685 24.2533L84.1684 24.227C84.183 24.2233 84.1984 24.2233 84.213 24.227C84.2185 24.2298 84.2234 24.2336 84.2274 24.2384C84.2314 24.2431 84.2343 24.2486 84.236 24.2545C84.2378 24.2605 84.2382 24.2667 84.2374 24.2728C84.2366 24.2789 84.2346 24.2848 84.2314 24.2901ZM80.9684 24.9596C80.9477 24.8986 80.9136 24.843 80.8686 24.7968C80.819 24.7435 80.7635 24.6959 80.7031 24.655C80.6405 24.6137 80.5735 24.5794 80.5034 24.5526C80.4406 24.528 80.3739 24.5146 80.3064 24.5133C80.2564 24.5132 80.2067 24.5212 80.1593 24.5369C80.1112 24.555 80.0646 24.577 80.02 24.6025C79.9743 24.6283 79.9304 24.6573 79.8887 24.6892L79.7704 24.7811C79.6465 24.8924 79.5409 25.0227 79.4578 25.1671C79.3561 25.3347 79.2682 25.5103 79.1951 25.6922C79.1228 25.8779 79.0631 26.0683 79.0164 26.262C78.9752 26.4235 78.9523 26.5891 78.9481 26.7556C78.9482 26.8165 78.9589 26.8769 78.9797 26.9342C78.9998 26.9898 79.031 27.0408 79.0716 27.0838C79.1098 27.1275 79.1562 27.1632 79.2082 27.1889C79.2631 27.2154 79.3233 27.2289 79.3842 27.2283C79.5437 27.2304 79.7019 27.2 79.8493 27.139C79.991 27.0791 80.1216 26.9956 80.2354 26.8922C80.3549 26.7829 80.4584 26.6574 80.5428 26.5193C80.6343 26.37 80.71 26.2116 80.7688 26.0467C80.8325 25.8765 80.88 25.7007 80.9106 25.5215C80.9443 25.336 80.9636 25.1481 80.9684 24.9596V24.9596Z" fill="#00AD97"/>
<path d="M90.8646 24.2402C90.863 24.2738 90.855 24.3068 90.841 24.3374C90.7359 24.5396 90.6177 24.7522 90.481 24.9675C90.3444 25.1829 90.1947 25.4008 90.0371 25.6082C89.8803 25.8147 89.7128 26.0128 89.5353 26.2016C89.3715 26.3762 89.1959 26.5394 89.0098 26.69C88.849 26.8222 88.6725 26.9342 88.4844 27.0235C88.3386 27.1012 88.1766 27.1435 88.0115 27.1469C87.864 27.1533 87.7172 27.1231 87.5842 27.059C87.4513 26.9948 87.3363 26.8987 87.2496 26.7793C87.0448 26.4548 86.944 26.0756 86.9606 25.6923L86.9054 25.6712C86.8567 25.7255 86.8111 25.7825 86.7688 25.8419C86.7058 25.9286 86.6322 26.0284 86.5429 26.1413C86.4536 26.2542 86.359 26.3723 86.2513 26.4957C86.1481 26.6146 86.0366 26.7261 85.9176 26.8292C85.8493 26.8896 85.7626 26.9605 85.6549 27.0419C85.5479 27.1285 85.4356 27.2083 85.3186 27.2808C85.1891 27.3593 85.0528 27.4261 84.9114 27.4804C84.7619 27.538 84.6039 27.5709 84.4438 27.5775C84.2793 27.5867 84.1158 27.5475 83.9735 27.4646C83.8625 27.3937 83.7719 27.295 83.7108 27.1784C83.6513 27.0555 83.614 26.923 83.6004 26.7872C83.5849 26.6503 83.577 26.5127 83.5768 26.3749C83.5747 26.333 83.5747 26.2909 83.5768 26.2489C83.5768 26.1806 83.5847 26.0931 83.6004 25.9863C83.6004 25.8839 83.6267 25.7684 83.6451 25.645C83.6635 25.5216 83.6845 25.3824 83.7108 25.2616C83.737 25.1408 83.7686 24.9991 83.8027 24.8757C83.8363 24.7567 83.8775 24.64 83.9262 24.5264L83.9971 24.3636C84.0147 24.3195 84.0367 24.2773 84.0628 24.2376C84.0844 24.2047 84.1121 24.1762 84.1443 24.1536C84.1778 24.1312 84.2169 24.1185 84.2572 24.1168C84.3066 24.1162 84.3554 24.1279 84.3991 24.1509C84.435 24.1728 84.4655 24.2024 84.4884 24.2376C84.5095 24.2728 84.5254 24.3108 84.5357 24.3505C84.546 24.3917 84.5513 24.434 84.5515 24.4765C84.5429 24.5609 84.5235 24.6439 84.4937 24.7234C84.4569 24.8468 84.4149 24.9859 84.3702 25.1724C84.3255 25.3588 84.2861 25.5426 84.2467 25.7579C84.2096 25.98 84.1911 26.2049 84.1915 26.4301C84.1881 26.4825 84.1881 26.5352 84.1915 26.5876C84.2006 26.6468 84.2184 26.7043 84.2441 26.7583C84.2672 26.8119 84.3022 26.8595 84.3466 26.8975C84.3945 26.9347 84.4539 26.9542 84.5147 26.9526C84.6152 26.947 84.7143 26.9266 84.8089 26.8922C84.9125 26.8564 85.0127 26.8116 85.1084 26.7583C85.2081 26.7039 85.3038 26.6425 85.3948 26.5745C85.4824 26.5098 85.5657 26.4397 85.6444 26.3644C85.7258 26.2883 85.8125 26.2016 85.9071 26.1019C86.0017 26.0021 86.0858 25.8997 86.1698 25.792C86.2539 25.6844 86.338 25.5793 86.4142 25.4717C86.4903 25.364 86.5508 25.2695 86.6007 25.1802C86.6269 25.133 86.6637 25.0621 86.7084 24.9702C86.7531 24.8783 86.8003 24.7811 86.8476 24.6787C86.8949 24.5763 86.9343 24.4765 86.9711 24.3846C87.0016 24.3177 87.0262 24.2483 87.0447 24.1772C87.0447 24.1352 87.0657 24.0958 87.0736 24.059C87.0815 24.0223 87.0736 23.9881 87.0946 23.9514C87.1156 23.9146 87.113 23.8805 87.1261 23.8411C87.1392 23.8017 87.1498 23.7571 87.1682 23.7072C87.1798 23.6826 87.1958 23.6604 87.2154 23.6416C87.2411 23.6164 87.2703 23.5952 87.3021 23.5785C87.3344 23.5582 87.3687 23.5415 87.4046 23.5286C87.4386 23.5177 87.474 23.5115 87.5097 23.5103C87.5429 23.508 87.5761 23.5133 87.607 23.5255C87.6379 23.5378 87.6657 23.5568 87.6883 23.5812C87.729 23.6312 87.7529 23.6927 87.7566 23.7571C87.7566 23.7571 87.7566 23.7938 87.7383 23.8542C87.7199 23.9146 87.7094 23.996 87.691 24.0958C87.6726 24.1956 87.6516 24.3111 87.6305 24.4398C87.6095 24.5684 87.5885 24.7023 87.5675 24.8336C87.5465 24.9649 87.5333 25.0962 87.5202 25.2327C87.5082 25.3488 87.5021 25.4653 87.5018 25.582C87.4883 25.8189 87.5401 26.0551 87.6516 26.2647C87.6883 26.3364 87.7439 26.3968 87.8124 26.4394C87.8809 26.482 87.9597 26.5051 88.0404 26.5062C88.1946 26.5022 88.3454 26.4598 88.4791 26.3828C88.6439 26.2915 88.7981 26.1823 88.9389 26.0572C89.1003 25.917 89.253 25.7671 89.396 25.6082C89.5458 25.4428 89.6876 25.2774 89.8242 25.112L90.2052 24.6367C90.3234 24.4844 90.4232 24.3584 90.5099 24.256C90.5966 24.1536 90.665 24.1168 90.7149 24.1168C90.7293 24.1167 90.7436 24.1196 90.7567 24.1255C90.7699 24.1314 90.7816 24.1401 90.7911 24.1509C90.8102 24.1578 90.8272 24.1697 90.8401 24.1854C90.8531 24.2012 90.8616 24.2201 90.8646 24.2402V24.2402Z" fill="#00AD97"/>
<path d="M93.8495 24.4738C93.8524 24.5477 93.8291 24.6202 93.7839 24.6787C93.7642 24.7038 93.739 24.7241 93.7104 24.7382C93.6817 24.7523 93.6503 24.7598 93.6184 24.7601C93.5383 24.7636 93.4586 24.7464 93.3872 24.7102C93.3354 24.6783 93.287 24.6414 93.2427 24.5999C93.2006 24.5605 93.1586 24.5264 93.1166 24.4922C93.0625 24.4557 92.9978 24.4381 92.9327 24.4423C92.853 24.445 92.7753 24.4675 92.7067 24.508C92.6188 24.5574 92.5361 24.6155 92.4598 24.6813C92.372 24.757 92.2887 24.8376 92.2102 24.9229C92.1287 25.0121 92.0499 25.1014 91.9737 25.1854C91.8975 25.2694 91.8634 25.3272 91.8003 25.4139C91.7373 25.5005 91.6769 25.595 91.6138 25.6896C91.5507 25.7841 91.4956 25.8839 91.443 25.9784C91.3945 26.063 91.3514 26.1507 91.3143 26.241C91.288 26.3066 91.2617 26.3749 91.2302 26.4484C91.1987 26.5219 91.1698 26.5981 91.1409 26.6795C91.1094 26.7594 91.0823 26.8409 91.0595 26.9237C91.0364 27.0048 91.0179 27.0872 91.0043 27.1705C90.9859 27.286 90.9701 27.3963 90.957 27.4961C90.9438 27.5846 90.9254 27.6723 90.9018 27.7586C90.8858 27.8218 90.8582 27.8815 90.8204 27.9346C90.805 27.9547 90.7851 27.9709 90.7623 27.9819C90.7395 27.9928 90.7143 27.9982 90.689 27.9976C90.607 28.0001 90.5255 27.9848 90.45 27.9529C90.3909 27.9243 90.3396 27.882 90.3002 27.8295C90.2639 27.7753 90.2381 27.7147 90.224 27.651C90.208 27.5819 90.1975 27.5117 90.1925 27.4409C90.1925 27.3254 90.1741 27.2125 90.1636 27.1075C90.1531 27.0024 90.1452 26.8948 90.1347 26.7845C90.1242 26.6742 90.1189 26.5613 90.1137 26.4379C90.1084 26.3145 90.1137 26.1753 90.1137 26.0204C90.1137 25.8655 90.1137 25.7079 90.1321 25.5294C90.1504 25.3508 90.1557 25.1802 90.1715 25.0042C90.1872 24.8283 90.203 24.6944 90.2214 24.5684C90.2315 24.4799 90.2473 24.3922 90.2687 24.3058C90.2952 24.2357 90.3277 24.1681 90.3659 24.1036C90.403 24.041 90.4461 23.982 90.4946 23.9277C90.536 23.8802 90.5837 23.8387 90.6365 23.8043C90.6784 23.7779 90.7263 23.7626 90.7757 23.7597C90.8124 23.7558 90.8494 23.7558 90.8861 23.7597C90.9227 23.7697 90.9568 23.7876 90.9859 23.8122C91.0175 23.8396 91.0426 23.8737 91.0595 23.9119C91.0774 23.9616 91.0863 24.0141 91.0857 24.0669C91.0785 24.1232 91.0653 24.1787 91.0463 24.2323C91.0201 24.3216 90.9885 24.4213 90.957 24.5369C90.9255 24.6524 90.8887 24.7705 90.8572 24.8966C90.8294 25.0056 90.8075 25.1161 90.7915 25.2274C90.7915 25.2458 90.7915 25.2852 90.7915 25.3403C90.7915 25.3955 90.7915 25.4611 90.7915 25.5347C90.7915 25.6082 90.7915 25.6869 90.7915 25.771C90.7915 25.855 90.7915 25.9338 90.7915 26.0099C90.7915 26.0861 90.7915 26.1097 90.7915 26.1517C90.7915 26.1937 90.7915 26.2278 90.7915 26.2567C90.8245 26.1935 90.8543 26.1286 90.8808 26.0624L91.0017 25.7998C91.0489 25.7001 91.0989 25.6003 91.1488 25.4979C91.1987 25.3955 91.2565 25.301 91.3143 25.2117L91.5219 24.9018C91.598 24.7916 91.6821 24.6786 91.7714 24.5684C91.8612 24.4549 91.9567 24.3463 92.0578 24.2428C92.1553 24.14 92.2617 24.046 92.3757 23.9618C92.4817 23.8827 92.5973 23.8174 92.7199 23.7675C92.8373 23.7188 92.9632 23.6938 93.0903 23.694C93.2101 23.6909 93.3292 23.7133 93.4397 23.7597C93.533 23.7988 93.6171 23.8569 93.6867 23.9303C93.7504 23.9995 93.7995 24.0807 93.8312 24.1693C93.855 24.2689 93.8612 24.372 93.8495 24.4738V24.4738Z" fill="#00AD97"/>
<path d="M104.505 24.768C104.499 24.8763 104.469 24.9821 104.418 25.0778C104.399 25.1139 104.374 25.1468 104.345 25.175C104.31 25.2111 104.273 25.2453 104.234 25.2774C104.2 25.3103 104.163 25.341 104.124 25.3693C104.096 25.3876 104.07 25.4077 104.045 25.4297C103.931 25.5232 103.811 25.6109 103.688 25.6922C103.543 25.7868 103.383 25.8839 103.205 25.9889C103.026 26.094 102.842 26.199 102.642 26.3067C102.443 26.4143 102.246 26.5193 102.049 26.6217C101.852 26.7241 101.657 26.8239 101.471 26.9158C101.284 27.0077 101.113 27.0891 100.961 27.1574C100.851 27.2074 100.745 27.2644 100.643 27.3281L100.346 27.504C100.254 27.5574 100.157 27.6031 100.057 27.6405C99.9575 27.6751 99.8527 27.6929 99.7472 27.693C99.6844 27.6928 99.6218 27.6858 99.5606 27.672C99.5028 27.6562 99.4478 27.6314 99.3977 27.5985C99.3508 27.5648 99.3122 27.5208 99.2848 27.4699C99.254 27.4126 99.2386 27.3484 99.2401 27.2834C99.2404 27.2441 99.2543 27.2061 99.2795 27.1758C99.308 27.1401 99.3427 27.1099 99.382 27.0865C99.4258 27.0574 99.4725 27.0328 99.5212 27.013C99.5711 26.9893 99.6184 26.971 99.6657 26.9526L99.8444 26.8922L100.052 26.8292L100.254 26.7662C100.312 26.7466 100.369 26.7238 100.425 26.6979C100.516 26.6495 100.6 26.5895 100.675 26.5193C100.754 26.4461 100.827 26.3661 100.893 26.2804C100.961 26.1966 101.024 26.109 101.082 26.0178C101.14 25.9259 101.195 25.834 101.245 25.7552C101.281 25.6917 101.314 25.626 101.342 25.5583C101.371 25.4874 101.4 25.4139 101.423 25.343C101.446 25.2753 101.464 25.206 101.476 25.1356C101.488 25.0812 101.495 25.0258 101.497 24.9702C101.505 24.8074 101.461 24.6462 101.371 24.5107C101.337 24.4579 101.29 24.4144 101.235 24.3841C101.18 24.3539 101.118 24.3378 101.055 24.3374C100.963 24.3429 100.873 24.3698 100.793 24.4161C100.686 24.4705 100.583 24.5328 100.485 24.6025C100.386 24.6721 100.292 24.7476 100.202 24.8284C100.115 24.9098 100.044 24.978 99.9915 25.0332C99.8603 25.1723 99.7391 25.3206 99.6289 25.4769C99.516 25.6397 99.4082 25.8025 99.3084 25.9706C99.2086 26.1386 99.114 26.3093 99.0247 26.48C98.9354 26.6506 98.8513 26.8134 98.7777 26.9683C98.7436 27.0996 98.7094 27.2309 98.6779 27.4042C98.6464 27.5775 98.6227 27.7377 98.6043 27.9294C98.5754 28.3075 98.5518 28.6409 98.536 28.9376C98.5231 29.2099 98.4915 29.481 98.4414 29.749C98.425 29.8378 98.383 29.9199 98.3206 29.9853C98.287 30.0207 98.2461 30.0482 98.2007 30.0659C98.1553 30.0836 98.1065 30.091 98.0579 30.0877C98.0209 30.0861 97.9844 30.0781 97.9501 30.0641C97.9071 30.0489 97.8664 30.0277 97.8293 30.0011C97.7939 29.9737 97.7621 29.9419 97.7347 29.9065C97.709 29.8735 97.6951 29.8328 97.6953 29.791C97.6953 29.6991 97.6953 29.5862 97.7137 29.4497C97.7321 29.3131 97.74 29.1871 97.7584 29.0427C97.7768 28.8983 97.7899 28.7801 97.8057 28.6698C97.8214 28.5595 97.8319 28.4808 97.8372 28.4361C97.8766 28.1473 97.9107 27.8375 97.9423 27.504C97.9738 27.1705 97.9974 26.8082 98.0158 26.4143C98.0158 26.3329 98.0158 26.22 98.0158 26.0835C98.0158 25.9469 98.0158 25.8051 98.0158 25.666C98.0158 25.5268 98.0158 25.4034 98.029 25.2721C98.0421 25.1408 98.029 25.0647 98.029 25.0095C98.0684 24.4844 98.2076 24.2218 98.4493 24.2218C98.497 24.2216 98.544 24.2333 98.5859 24.2559C98.6286 24.2798 98.6669 24.3109 98.6989 24.3479C98.7329 24.386 98.7605 24.4294 98.7803 24.4765C98.7984 24.5198 98.8082 24.5661 98.8092 24.6131C98.8085 24.7197 98.798 24.8261 98.7777 24.9308C98.7567 25.0437 98.7331 25.1592 98.7094 25.2774C98.6858 25.3955 98.6595 25.5111 98.6385 25.6266C98.6185 25.7296 98.6079 25.8342 98.6069 25.9391C98.6069 26.0205 98.607 26.0598 98.6332 26.0598C98.808 25.7421 98.9992 25.4335 99.206 25.1356C99.3693 24.8949 99.5578 24.6722 99.7682 24.4713C99.8873 24.361 100.005 24.2586 100.123 24.1641C100.235 24.0747 100.353 23.9939 100.478 23.9225C100.593 23.8546 100.717 23.8008 100.845 23.7623C100.977 23.7242 101.113 23.7039 101.25 23.7019C101.355 23.7012 101.458 23.7255 101.552 23.7728C101.662 23.8268 101.759 23.9039 101.836 23.9986C101.924 24.1083 101.993 24.2316 102.041 24.3636C102.098 24.5199 102.124 24.6857 102.12 24.852C102.122 24.9939 102.1 25.1352 102.054 25.2695C102.007 25.413 101.946 25.5512 101.87 25.6817C101.793 25.819 101.705 25.9498 101.607 26.073C101.51 26.1957 101.405 26.3115 101.292 26.4196C101.534 26.3293 101.77 26.2232 101.999 26.1018C102.24 25.9784 102.482 25.8393 102.724 25.6975C102.965 25.5557 103.202 25.4008 103.433 25.2459C103.664 25.0909 103.89 24.9386 104.1 24.789C104.154 24.754 104.206 24.7163 104.255 24.6761C104.293 24.6475 104.339 24.6318 104.387 24.6314C104.403 24.63 104.419 24.6349 104.432 24.6452C104.445 24.6555 104.453 24.6703 104.455 24.6866C104.474 24.7122 104.491 24.7395 104.505 24.768V24.768Z" fill="#00AD97"/>
<path d="M109.91 25.133C109.908 25.1726 109.904 25.2122 109.896 25.2511C109.887 25.2984 109.875 25.3449 109.86 25.3903C109.844 25.4376 109.828 25.4848 109.81 25.5268C109.796 25.5632 109.777 25.5976 109.754 25.6292L109.681 25.7185C109.649 25.7579 109.613 25.7973 109.573 25.8419L109.447 25.9837C109.4 26.031 109.353 26.0782 109.303 26.1229C109.129 26.2831 108.958 26.4353 108.793 26.585C108.628 26.7307 108.453 26.8633 108.268 26.9815C108.094 27.0896 107.909 27.1777 107.716 27.2441C107.517 27.3147 107.307 27.3476 107.096 27.3412C106.989 27.3406 106.883 27.3219 106.783 27.2861C106.677 27.2479 106.578 27.1939 106.489 27.1259C106.396 27.0513 106.315 26.9627 106.25 26.8633C106.184 26.765 106.136 26.6556 106.108 26.5404L105.845 26.8029L105.567 27.0655C105.47 27.1583 105.371 27.2458 105.267 27.3281C105.165 27.4131 105.059 27.4929 104.949 27.567C104.886 27.6064 104.815 27.6484 104.729 27.6931C104.642 27.7377 104.555 27.7771 104.466 27.8165C104.375 27.853 104.282 27.8837 104.187 27.9084C104.102 27.9308 104.013 27.9423 103.925 27.9425C103.817 27.945 103.712 27.9076 103.63 27.8375C103.546 27.7643 103.476 27.675 103.426 27.5749C103.37 27.4707 103.33 27.3594 103.305 27.2441C103.279 27.1418 103.265 27.037 103.263 26.9316C103.265 26.7406 103.292 26.5508 103.344 26.3671C103.396 26.174 103.466 25.9859 103.552 25.8052C103.634 25.6238 103.729 25.4483 103.835 25.28C103.941 25.1172 104.043 24.9702 104.143 24.8415C104.257 24.6983 104.382 24.5648 104.518 24.4424C104.66 24.3127 104.811 24.1934 104.97 24.0853C105.117 23.9847 105.271 23.8969 105.433 23.8227C105.559 23.7641 105.696 23.731 105.835 23.7256H106.019C106.084 23.7256 106.15 23.7256 106.216 23.7256C106.279 23.7329 106.341 23.7443 106.402 23.7597C106.461 23.7744 106.518 23.7974 106.57 23.828C106.604 23.8556 106.633 23.8884 106.657 23.9251C106.693 23.9756 106.725 24.0292 106.752 24.0853C106.781 24.1418 106.806 24.2006 106.825 24.2612C106.843 24.3048 106.852 24.3509 106.854 24.3978C106.849 24.5225 106.828 24.646 106.791 24.7654C106.746 24.9597 106.707 25.133 106.668 25.2905C106.63 25.4507 106.612 25.6145 106.612 25.7789C106.613 25.8768 106.628 25.9741 106.657 26.0677C106.688 26.1616 106.733 26.2502 106.791 26.3303C106.846 26.4102 106.917 26.4781 106.999 26.5299C107.082 26.5815 107.179 26.608 107.277 26.606C107.457 26.605 107.636 26.5694 107.802 26.501C107.994 26.4235 108.177 26.3249 108.346 26.2069C108.537 26.0756 108.719 25.9318 108.89 25.7763C109.074 25.6135 109.25 25.4402 109.416 25.2511L109.489 25.1645C109.526 25.1251 109.56 25.0831 109.599 25.0437C109.634 25.0058 109.671 24.9699 109.71 24.936C109.747 24.9019 109.773 24.8862 109.789 24.8862C109.878 24.9597 109.91 25.0174 109.91 25.133ZM106.184 24.7837C106.184 24.7365 106.184 24.6787 106.184 24.6078C106.182 24.547 106.162 24.488 106.129 24.4372C106.117 24.4175 106.101 24.4011 106.081 24.3896C106.061 24.3781 106.039 24.3719 106.016 24.3715H105.885C105.788 24.3714 105.692 24.3874 105.601 24.4188C105.509 24.4507 105.421 24.493 105.338 24.5448C105.246 24.6009 105.158 24.6641 105.075 24.7339C104.997 24.8048 104.92 24.8809 104.844 24.9571C104.772 25.0325 104.704 25.1123 104.642 25.196C104.571 25.2905 104.5 25.3955 104.432 25.5085C104.363 25.6214 104.298 25.7395 104.232 25.8629C104.166 25.9863 104.114 26.1097 104.067 26.2305C104.021 26.3451 103.983 26.4627 103.954 26.5824C103.927 26.6826 103.913 26.7858 103.912 26.8896C103.908 26.9263 103.908 26.9632 103.912 26.9999C103.917 27.0458 103.929 27.0907 103.946 27.1338C103.958 27.1752 103.978 27.2137 104.006 27.2467C104.019 27.2606 104.034 27.2718 104.051 27.2794C104.069 27.2871 104.087 27.2912 104.106 27.2913C104.273 27.2828 104.436 27.2418 104.587 27.1706C104.849 27.0589 105.09 26.9045 105.301 26.7137C105.516 26.5176 105.7 26.2911 105.848 26.0415C106.065 25.6577 106.181 25.2248 106.184 24.7837Z" fill="#00AD97"/>
<path d="M113.667 24.9571C113.664 25.008 113.652 25.0581 113.63 25.1041C113.601 25.1637 113.568 25.2207 113.53 25.2748C113.486 25.3366 113.437 25.3953 113.385 25.4507L113.228 25.6292C113.186 25.6765 113.141 25.7264 113.094 25.7737L112.934 25.9364L112.721 26.1465L112.437 26.4248C112.34 26.5194 112.232 26.6191 112.111 26.7242C111.99 26.8292 111.875 26.9316 111.751 27.0314L111.399 27.3202L111.102 27.5618L110.527 28.0292C110.346 28.1736 110.167 28.3075 110.002 28.423C109.763 28.614 109.477 28.7358 109.174 28.7749C109.091 28.7717 109.009 28.753 108.932 28.7197C108.838 28.6856 108.79 28.6331 108.79 28.5701C108.787 28.4878 108.804 28.406 108.84 28.3318C108.875 28.2576 108.929 28.1933 108.995 28.1447C109.191 28.0131 109.402 27.9056 109.623 27.8244C109.845 27.7444 110.056 27.6349 110.249 27.4988C110.317 27.4496 110.372 27.3843 110.408 27.3087C110.445 27.233 110.462 27.1495 110.459 27.0655C110.405 26.8591 110.307 26.6672 110.17 26.5036C110.075 26.3618 109.991 26.241 109.907 26.1124C109.823 25.9837 109.77 25.8866 109.715 25.792C109.614 25.6049 109.562 25.3954 109.563 25.1829C109.565 24.9815 109.601 24.7819 109.668 24.5921C109.704 24.4677 109.758 24.3492 109.828 24.2402C109.898 24.1266 109.979 24.0202 110.07 23.9225C110.147 23.8364 110.235 23.7612 110.333 23.6993C110.401 23.6492 110.482 23.6208 110.566 23.6179C110.813 23.6179 110.934 23.765 110.934 24.0538C110.932 24.1729 110.889 24.2877 110.813 24.3794C110.769 24.4346 110.722 24.4872 110.672 24.5369C110.616 24.5921 110.551 24.6498 110.48 24.7102C110.409 24.7706 110.351 24.8205 110.301 24.8651C110.251 24.9098 110.212 24.9465 110.183 24.978C110.191 25.1554 110.237 25.329 110.317 25.4874C110.364 25.5846 110.417 25.687 110.48 25.7973C110.543 25.9076 110.611 26.0284 110.693 26.157C110.774 26.2857 110.842 26.4012 110.897 26.5036C110.953 26.606 110.995 26.6795 111.024 26.7268C111.052 26.7741 111.042 26.7426 111.068 26.7426C111.142 26.7294 111.212 26.7008 111.273 26.6585C111.368 26.6008 111.483 26.5246 111.615 26.4275C111.746 26.3303 111.893 26.22 112.048 26.094C112.203 25.968 112.361 25.8314 112.518 25.6896C112.676 25.5478 112.813 25.4271 112.918 25.3089L113.22 25.0043C113.314 24.9098 113.385 24.8363 113.433 24.7837C113.454 24.7541 113.48 24.7276 113.509 24.705C113.532 24.7058 113.555 24.7152 113.572 24.7312C113.593 24.7502 113.611 24.7723 113.625 24.7969C113.64 24.823 113.652 24.8513 113.659 24.8809C113.666 24.9057 113.668 24.9314 113.667 24.9571V24.9571Z" fill="#00AD97"/>
<path d="M113.604 24.1063C113.646 24.0439 113.693 23.985 113.745 23.9303C113.801 23.8718 113.86 23.8166 113.921 23.7649C113.978 23.7213 114.038 23.6818 114.1 23.6468C114.144 23.6196 114.193 23.6033 114.245 23.5995C114.285 23.6001 114.326 23.609 114.363 23.6258C114.401 23.6413 114.436 23.6645 114.465 23.694C114.494 23.7204 114.518 23.7515 114.536 23.7859C114.554 23.8191 114.563 23.8561 114.562 23.8936C114.562 23.9655 114.543 24.036 114.507 24.0984C114.466 24.1691 114.418 24.2352 114.363 24.2953C114.305 24.3607 114.243 24.4229 114.179 24.4817L113.99 24.655C113.937 24.7034 113.889 24.7561 113.845 24.8126C113.813 24.8506 113.792 24.897 113.785 24.9465C113.83 25.0412 113.887 25.1295 113.956 25.2091C114.032 25.2978 114.116 25.3803 114.205 25.4559C114.297 25.5373 114.4 25.6187 114.507 25.7001L114.838 25.9469C114.899 25.9889 114.954 26.0374 115.004 26.0913C115.051 26.1386 115.09 26.1832 115.125 26.2226L115.206 26.3198C115.227 26.3434 115.243 26.3565 115.259 26.3565C115.291 26.3507 115.321 26.3382 115.348 26.3198C115.395 26.2912 115.441 26.2596 115.485 26.2252L115.658 26.0808C115.725 26.0248 115.79 25.9644 115.855 25.8996C116.018 25.75 116.181 25.5872 116.346 25.4086L116.806 24.9124C116.948 24.7574 117.069 24.6262 117.182 24.5238C117.295 24.4213 117.366 24.3688 117.413 24.3688C117.438 24.3678 117.463 24.3742 117.484 24.3872C117.5 24.4003 117.513 24.4175 117.521 24.4371C117.524 24.4589 117.524 24.481 117.521 24.5027C117.522 24.5264 117.522 24.55 117.521 24.5736C117.511 24.6313 117.489 24.686 117.455 24.7338C117.413 24.8073 117.358 24.8966 117.287 24.9964C117.216 25.0962 117.137 25.2065 117.048 25.322C116.958 25.4375 116.869 25.5504 116.785 25.6633C116.701 25.7762 116.604 25.8813 116.522 25.981C116.441 26.0808 116.359 26.1596 116.291 26.2226L116.084 26.4222C116.021 26.4799 115.957 26.5429 115.889 26.6086L115.666 26.8265L115.372 27.1127C115.28 27.202 115.193 27.2939 115.109 27.3753L114.87 27.6379C114.791 27.7298 114.71 27.819 114.625 27.9004C114.541 27.9818 114.455 28.079 114.363 28.163C114.223 28.2892 114.074 28.4059 113.919 28.5122C113.795 28.5991 113.647 28.6475 113.496 28.6514C113.395 28.6552 113.294 28.6326 113.204 28.5858C113.169 28.5688 113.138 28.542 113.117 28.5085C113.097 28.475 113.086 28.4362 113.086 28.3967C113.088 28.3094 113.123 28.226 113.183 28.163C113.254 28.0841 113.334 28.0144 113.422 27.9556C113.522 27.8866 113.625 27.8235 113.732 27.7665C113.843 27.7088 113.948 27.6484 114.045 27.5906C114.222 27.4912 114.376 27.3541 114.494 27.1889C114.586 27.0597 114.636 26.906 114.639 26.7478C114.623 26.6088 114.557 26.4806 114.452 26.388C114.265 26.2053 114.057 26.0458 113.832 25.9128C113.739 25.8557 113.651 25.7907 113.569 25.7185C113.5 25.6526 113.437 25.5805 113.38 25.5031C113.332 25.4396 113.292 25.3709 113.259 25.2983C113.232 25.2436 113.217 25.1836 113.215 25.1224C113.214 25.0347 113.22 24.947 113.23 24.8599C113.243 24.7776 113.263 24.6967 113.291 24.6183C113.324 24.533 113.363 24.4505 113.409 24.3715C113.472 24.3049 113.537 24.2165 113.604 24.1063Z" fill="#00AD97"/>
<path d="M121.272 25.2564C121.267 25.3415 121.239 25.4239 121.193 25.4953C121.127 25.6141 121.054 25.7282 120.972 25.8367C120.878 25.9627 120.77 26.0992 120.646 26.2437C120.523 26.3881 120.384 26.5351 120.255 26.6795C120.126 26.824 119.932 27.0078 119.758 27.1627C119.58 27.3218 119.393 27.4717 119.199 27.6117C118.904 27.8656 118.536 28.0184 118.148 28.0475C117.999 28.0553 117.851 28.0288 117.714 27.9701C117.578 27.9113 117.456 27.8219 117.36 27.7088C117.167 27.4672 117.037 27.1825 116.979 26.8791C116.912 26.5534 116.879 26.2217 116.879 25.8892C116.879 25.7474 116.897 25.5242 116.929 25.2249C116.947 25.0726 116.963 24.9439 116.979 24.8336C116.995 24.7234 117.016 24.6393 117.034 24.5711C117.078 24.4333 117.164 24.313 117.281 24.2271C117.393 24.1312 117.535 24.0774 117.683 24.0748C117.759 24.0748 117.796 24.1457 117.796 24.2875C117.795 24.3948 117.786 24.5019 117.77 24.6078C117.751 24.7286 117.733 24.8468 117.712 24.9649C117.675 25.1855 117.649 25.3824 117.633 25.5557C117.617 25.7316 117.607 25.8813 117.607 26.01C117.608 26.2985 117.647 26.5855 117.725 26.8633C117.804 27.1574 117.943 27.3018 118.148 27.3018C118.403 27.2884 118.651 27.2107 118.868 27.076C119.004 26.9999 119.13 26.9132 119.278 26.8135C119.42 26.7141 119.557 26.6071 119.687 26.4931C119.827 26.3776 119.95 26.2594 120.089 26.1413C120.229 26.0231 120.352 25.8997 120.465 25.7737C120.578 25.6476 120.699 25.5321 120.796 25.4244C120.893 25.3168 120.98 25.2144 121.059 25.1225C121.058 25.1138 121.058 25.1049 121.059 25.0962L121.082 25.0568L121.106 25.0253C121.11 25.0233 121.115 25.0222 121.119 25.0222C121.124 25.0222 121.128 25.0233 121.132 25.0253C121.172 25.0253 121.201 25.0568 121.219 25.1172C121.246 25.1596 121.264 25.207 121.272 25.2564V25.2564ZM118.529 21.8561C118.533 22.0223 118.484 22.1854 118.387 22.3208C118.341 22.3844 118.28 22.4353 118.209 22.4689C118.139 22.5024 118.06 22.5174 117.982 22.5125C117.856 22.5112 117.731 22.4944 117.609 22.4626C117.475 22.4285 117.407 22.376 117.407 22.2998C117.409 22.1593 117.454 22.0228 117.536 21.9086C117.616 21.7878 117.721 21.685 117.843 21.6066C117.899 21.5654 117.964 21.5367 118.032 21.5226C118.158 21.5166 118.284 21.5381 118.4 21.5856C118.447 21.6122 118.484 21.6524 118.507 21.7007C118.53 21.749 118.537 21.8032 118.529 21.8561V21.8561Z" fill="#00AD97"/>
<path d="M126.466 24.2901C126.463 24.3451 126.445 24.3985 126.416 24.445C126.378 24.5062 126.334 24.5634 126.285 24.6157C126.229 24.6756 126.169 24.7317 126.106 24.7837C126.038 24.8362 125.972 24.8861 125.904 24.9334C125.835 24.9806 125.775 25.02 125.714 25.0542L125.565 25.1329C125.472 25.1688 125.376 25.196 125.278 25.2143C125.16 25.238 125.037 25.2563 124.908 25.2747L124.532 25.3141C124.409 25.3141 124.306 25.3141 124.222 25.3141C124.175 25.3127 124.129 25.3074 124.083 25.2984C124.025 25.2984 123.965 25.2721 123.904 25.2563C123.845 25.2419 123.787 25.2235 123.731 25.2012C123.687 25.1856 123.647 25.1635 123.61 25.1356C123.636 25.2406 123.657 25.3482 123.678 25.4559C123.697 25.5652 123.707 25.6758 123.707 25.7867C123.707 25.8493 123.701 25.9117 123.689 25.9732C123.689 26.0441 123.66 26.1176 123.639 26.1911C123.618 26.2646 123.594 26.3355 123.568 26.4038C123.549 26.4636 123.522 26.5209 123.489 26.5745C123.421 26.6898 123.347 26.8011 123.266 26.9079C123.189 27.0101 123.101 27.1034 123.003 27.1863C122.902 27.2751 122.794 27.3558 122.68 27.4278C122.547 27.5095 122.408 27.5823 122.265 27.6458C122.103 27.7156 121.934 27.7667 121.76 27.7981C121.587 27.8278 121.411 27.8427 121.235 27.8427C121.125 27.8441 121.017 27.808 120.93 27.7403C120.836 27.6706 120.759 27.5809 120.704 27.4777C120.639 27.3546 120.591 27.2229 120.562 27.0865C120.531 26.9336 120.515 26.7779 120.515 26.6217C120.512 26.5701 120.512 26.5184 120.515 26.4668C120.515 26.4064 120.531 26.3434 120.544 26.2777C120.557 26.2121 120.57 26.1517 120.583 26.0939C120.597 26.0362 120.612 25.9863 120.626 25.9443C120.673 25.8068 120.729 25.6726 120.794 25.5425C120.867 25.3929 120.951 25.238 121.056 25.0804C121.157 24.9198 121.265 24.7647 121.382 24.6157C121.497 24.4697 121.623 24.3336 121.76 24.2087C121.883 24.0937 122.021 23.9965 122.17 23.9198C122.301 23.8491 122.447 23.8113 122.596 23.8096C122.636 23.8084 122.675 23.8156 122.712 23.8306C122.739 23.8453 122.765 23.8638 122.788 23.8857C122.808 23.908 122.826 23.9317 122.843 23.9566C122.861 23.9832 122.882 24.0087 122.903 24.0327C122.907 24.0392 122.912 24.0445 122.919 24.0482C122.925 24.0519 122.933 24.0538 122.94 24.0538C122.969 24.0526 122.997 24.0464 123.024 24.0354C123.061 24.0244 123.099 24.0191 123.137 24.0196C123.213 24.0305 123.282 24.0666 123.334 24.122C123.41 24.1903 123.494 24.2664 123.578 24.3478C123.663 24.4292 123.749 24.5054 123.841 24.5736C123.904 24.6327 123.984 24.6688 124.07 24.6761H124.311L124.574 24.6603L124.837 24.634C124.924 24.634 125.002 24.6104 125.076 24.5947L125.213 24.5579L125.475 24.4896L125.78 24.403L126.08 24.3163L126.308 24.2533L126.405 24.227C126.421 24.2232 126.437 24.2232 126.453 24.227C126.462 24.2343 126.468 24.2446 126.471 24.2562C126.473 24.2677 126.471 24.2797 126.466 24.2901V24.2901ZM123.2 24.9596C123.18 24.8988 123.147 24.8431 123.103 24.7968C123.052 24.7434 122.996 24.6959 122.935 24.655C122.873 24.6132 122.806 24.5788 122.735 24.5526C122.672 24.5275 122.606 24.5142 122.538 24.5133C122.489 24.5132 122.44 24.5212 122.394 24.5369C122.345 24.5555 122.297 24.5774 122.252 24.6025C122.206 24.629 122.163 24.6579 122.12 24.6892L122.005 24.7811C121.88 24.8916 121.774 25.0221 121.692 25.1671C121.589 25.3342 121.502 25.5099 121.429 25.6922C121.357 25.8779 121.297 26.0683 121.251 26.262C121.21 26.4235 121.188 26.5891 121.185 26.7556C121.185 26.8165 121.196 26.8769 121.217 26.9342C121.236 26.9897 121.266 27.0406 121.306 27.0839C121.345 27.1281 121.392 27.1639 121.445 27.1889C121.5 27.2157 121.56 27.2292 121.621 27.2283C121.78 27.2302 121.937 27.1998 122.084 27.139C122.227 27.0798 122.358 26.9963 122.472 26.8922C122.592 26.7829 122.695 26.6574 122.78 26.5193C122.871 26.37 122.947 26.2116 123.006 26.0467C123.067 25.876 123.114 25.7003 123.145 25.5215C123.178 25.3359 123.196 25.1481 123.2 24.9596V24.9596Z" fill="#00AD97"/>
<path d="M131.465 26.7373C131.462 26.852 131.427 26.9635 131.366 27.0603C131.29 27.1879 131.19 27.2994 131.071 27.3885C130.925 27.5015 130.762 27.5902 130.588 27.6511C130.375 27.7228 130.151 27.7574 129.926 27.7535C129.697 27.7575 129.471 27.7127 129.261 27.6222C129.065 27.5306 128.896 27.3883 128.773 27.21C128.63 26.9928 128.53 26.7504 128.478 26.4958C128.405 26.1577 128.37 25.8124 128.376 25.4665C128.305 25.5177 128.24 25.5748 128.179 25.6371C128.092 25.7212 127.995 25.8236 127.887 25.9391C127.779 26.0546 127.669 26.178 127.553 26.312C127.438 26.4459 127.325 26.5745 127.222 26.7006C127.12 26.8266 127.023 26.9395 126.941 27.0446C126.86 27.1496 126.799 27.2336 126.76 27.2914C126.689 27.3964 126.634 27.4857 126.592 27.5539C126.558 27.6142 126.518 27.6713 126.474 27.7246C126.445 27.7647 126.406 27.7964 126.361 27.8165C126.311 27.8368 126.257 27.8467 126.203 27.8454C126.148 27.8457 126.092 27.8359 126.04 27.8165C125.992 27.802 125.947 27.7779 125.909 27.7456C125.875 27.7191 125.846 27.6861 125.825 27.6485C125.807 27.6153 125.797 27.5784 125.796 27.5408C125.796 27.4883 125.796 27.4305 125.796 27.3649C125.796 27.2992 125.812 27.2336 125.82 27.1653L125.851 26.9632C125.851 26.8949 125.872 26.8345 125.88 26.782C125.909 26.6349 125.94 26.4616 125.972 26.2568C126.003 26.052 126.032 25.8157 126.053 25.5321C126.067 25.3509 126.08 25.1803 126.093 25.007C126.106 24.8337 126.111 24.6761 126.111 24.5002C126.112 24.4189 126.121 24.3378 126.14 24.2586C126.159 24.1852 126.189 24.1151 126.229 24.0512C126.269 23.9928 126.321 23.9436 126.382 23.9068C126.437 23.8763 126.498 23.8579 126.561 23.8529C126.624 23.848 126.688 23.8565 126.747 23.8779C126.782 23.8907 126.812 23.9121 126.836 23.9402C126.86 23.9682 126.876 24.0019 126.884 24.0381C126.887 24.0739 126.887 24.1099 126.884 24.1457C126.886 24.1868 126.886 24.2281 126.884 24.2691C126.881 24.305 126.881 24.3409 126.884 24.3768C126.885 24.4074 126.885 24.4381 126.884 24.4687C126.884 24.5238 126.863 24.5921 126.847 24.6761C126.831 24.7602 126.813 24.8547 126.792 24.9571L126.729 25.2669C126.681 25.4822 126.647 25.6529 126.626 25.7921C126.605 25.9312 126.589 26.0336 126.579 26.1255C126.568 26.2174 126.563 26.3067 126.558 26.3881C126.553 26.4695 126.558 26.5667 126.532 26.6796C126.614 26.571 126.701 26.4667 126.794 26.3671L127.141 25.9837C127.262 25.8525 127.375 25.7212 127.485 25.5978C127.596 25.4744 127.682 25.372 127.748 25.2879C127.829 25.1805 127.917 25.0779 128.011 24.9807C128.09 24.8937 128.178 24.8146 128.273 24.7444C128.362 24.6778 128.461 24.6247 128.565 24.5868C128.671 24.549 128.783 24.5295 128.896 24.5291C128.977 24.5291 129.03 24.5501 129.051 24.5895C129.076 24.6326 129.087 24.6817 129.085 24.7313C129.086 24.754 129.086 24.7768 129.085 24.7995C129.085 24.8232 129.085 24.8468 129.085 24.8678C129.088 24.908 129.088 24.9484 129.085 24.9886C129.085 25.0464 129.067 25.1068 129.059 25.1724C129.051 25.238 129.043 25.2984 129.035 25.3588C129.027 25.4192 129.035 25.456 129.035 25.4796C129.034 25.7031 129.052 25.9263 129.09 26.1465C129.12 26.33 129.179 26.5074 129.266 26.6717C129.342 26.812 129.454 26.9298 129.59 27.013C129.74 27.0984 129.911 27.1402 130.083 27.1338C130.194 27.1349 130.305 27.127 130.415 27.1102C130.505 27.0961 130.593 27.0705 130.677 27.034C130.769 26.9957 130.857 26.9492 130.94 26.8949C131.032 26.8397 131.134 26.7715 131.247 26.6874L131.331 26.6244L131.4 26.5824C131.415 26.5711 131.433 26.5638 131.452 26.5614L131.465 26.7373Z" fill="#00AD97"/>
</svg>
