<svg width="23" height="20" viewBox="0 0 23 20" fill="none" xmlns="http://www.w3.org/2000/svg">
<path fill-rule="evenodd" clip-rule="evenodd" d="M7.88694 2C5.07364 2 2.99805 4.73389 2.99805 7.48C2.99805 8.80144 3.51118 10.1206 4.36601 11.395C5.22005 12.6682 6.37936 13.8421 7.57583 14.8505C8.76854 15.8557 9.97111 16.6738 10.8867 17.2403C11.3438 17.5231 11.725 17.7405 11.9924 17.8848C11.9943 17.8859 11.9962 17.8869 11.998 17.8879C11.9999 17.8869 12.0018 17.8859 12.0037 17.8848C12.2711 17.7405 12.6523 17.5231 13.1094 17.2403C14.025 16.6738 15.2276 15.8557 16.4203 14.8505C17.6167 13.8421 18.776 12.6682 19.6301 11.395C20.4849 10.1206 20.998 8.80144 20.998 7.48C20.998 4.73389 18.9225 2 16.1092 2C14.4679 2 13.4016 2.81824 12.7593 3.57222C12.5693 3.79526 12.291 3.92375 11.998 3.92375C11.7051 3.92375 11.4268 3.79526 11.2368 3.57222C10.5945 2.81824 9.52819 2 7.88694 2ZM0.998047 7.48C0.998047 3.97111 3.65578 0 7.88694 0C9.71398 0 11.0641 0.710504 11.998 1.51082C12.932 0.710503 14.2821 0 16.1092 0C20.3403 0 22.998 3.97111 22.998 7.48C22.998 9.32544 22.2834 11.0297 21.291 12.5091C20.2978 13.9897 18.9905 15.2999 17.7092 16.3798C16.4241 17.4629 15.1378 18.3372 14.1617 18.9411C13.673 19.2435 13.2577 19.4807 12.9538 19.6447C12.8027 19.7263 12.6743 19.7924 12.5752 19.8404C12.527 19.8637 12.4767 19.8871 12.43 19.9068C12.4078 19.9161 12.3739 19.9299 12.3349 19.9431C12.3157 19.9496 12.2835 19.9601 12.2436 19.9699L12.2429 19.9701C12.2176 19.9763 12.1218 20 11.998 20C11.8743 20 11.7785 19.9763 11.7532 19.9701L11.7525 19.9699C11.7126 19.9601 11.6804 19.9496 11.6612 19.9431C11.6222 19.9299 11.5883 19.9161 11.5661 19.9068C11.5194 19.8871 11.4691 19.8637 11.4209 19.8404C11.3218 19.7924 11.1934 19.7263 11.0423 19.6447C10.7384 19.4807 10.3231 19.2435 9.83441 18.9411C8.85831 18.3372 7.572 17.4629 6.28693 16.3798C5.00563 15.2999 3.69827 13.9897 2.70508 12.5091C1.71269 11.0297 0.998047 9.32544 0.998047 7.48Z" fill="#101828"/>
</svg>
