<svg width="21" height="21" viewBox="0 0 21 21" fill="none" xmlns="http://www.w3.org/2000/svg">
<path fill-rule="evenodd" clip-rule="evenodd" d="M9.72647 0.336356C10.0688 0.243676 10.4296 0.243676 10.7719 0.336356C11.1692 0.443946 11.5038 0.706604 11.7708 0.916236C11.7963 0.93625 11.8212 0.955781 11.8454 0.974647L18.6277 6.24977C18.6538 6.27008 18.6797 6.29019 18.7054 6.31013C19.0821 6.60241 19.4139 6.85991 19.6611 7.19421C19.8781 7.48759 20.0398 7.8181 20.1381 8.1695C20.2502 8.56992 20.2497 8.98993 20.2492 9.46667C20.2492 9.4992 20.2492 9.53199 20.2492 9.56505V16.8386C20.2492 17.3657 20.2492 17.8204 20.2186 18.195C20.1863 18.5904 20.115 18.9836 19.9222 19.362C19.6346 19.9264 19.1756 20.3854 18.6111 20.673C18.2328 20.8658 17.8395 20.9371 17.4442 20.9694C17.0696 21 16.6149 21 16.0877 21H4.4106C3.88346 21 3.4287 21 3.05413 20.9694C2.65879 20.9371 2.26557 20.8658 1.88719 20.673C1.3227 20.3854 0.863763 19.9264 0.576143 19.362C0.383349 18.9836 0.312033 18.5904 0.279732 18.195C0.249129 17.8204 0.249144 17.3657 0.249162 16.8385L0.249163 9.56505C0.249163 9.53199 0.249128 9.49919 0.249092 9.46667C0.248577 8.98993 0.248123 8.56992 0.360204 8.1695C0.458565 7.8181 0.620211 7.48759 0.837203 7.19421C1.08446 6.85991 1.41628 6.6024 1.79291 6.31012C1.81861 6.29018 1.84451 6.27007 1.87061 6.24977L8.65292 0.974646C8.67718 0.95578 8.70205 0.936249 8.72754 0.916235C8.99455 0.706603 9.3291 0.443946 9.72647 0.336356ZM10.2419 2.28153C10.1667 2.33174 10.0677 2.40798 9.8808 2.55335L3.09849 7.82848C2.60042 8.21587 2.50767 8.29901 2.44518 8.3835C2.37285 8.4813 2.31896 8.59147 2.28618 8.7086C2.25785 8.8098 2.24916 8.93406 2.24916 9.56505V16.8C2.24916 17.3765 2.24994 17.7488 2.27309 18.0321C2.29529 18.3038 2.33296 18.4045 2.35816 18.454C2.45403 18.6421 2.60701 18.7951 2.79517 18.891C2.84462 18.9162 2.94534 18.9539 3.217 18.9761C3.50034 18.9992 3.87261 19 4.44916 19H16.0492C16.6257 19 16.998 18.9992 17.2813 18.9761C17.553 18.9539 17.6537 18.9162 17.7032 18.891C17.8913 18.7951 18.0443 18.6421 18.1402 18.454C18.1654 18.4045 18.203 18.3038 18.2252 18.0321C18.2484 17.7488 18.2492 17.3765 18.2492 16.8V9.56505C18.2492 8.93406 18.2405 8.8098 18.2121 8.7086C18.1794 8.59146 18.1255 8.4813 18.0532 8.3835C17.9907 8.29901 17.8979 8.21587 17.3998 7.82848L10.6175 2.55335C10.4306 2.40798 10.3316 2.33174 10.2565 2.28153C10.2539 2.27983 10.2515 2.27822 10.2492 2.27669C10.2468 2.27822 10.2444 2.27983 10.2419 2.28153ZM5.24916 16C5.24916 15.4477 5.69688 15 6.24916 15H14.2492C14.8014 15 15.2492 15.4477 15.2492 16C15.2492 16.5523 14.8014 17 14.2492 17H6.24916C5.69688 17 5.24916 16.5523 5.24916 16Z" fill="#101828"/>
</svg>
