<svg width="20" height="21" viewBox="0 0 20 21" fill="none" xmlns="http://www.w3.org/2000/svg">
<path d="M20 9.01622C20 4.32084 15.5141 0.5 9.99999 0.5C4.48589 0.5 0 4.32084 0 9.01622C0 13.2266 3.56172 16.7533 8.36254 17.4193C8.68872 17.4931 9.13206 17.6446 9.2436 17.9368C9.34483 18.2024 9.31015 18.6185 9.27641 18.8861C9.27641 18.8861 9.15924 19.6268 9.13393 19.7842C9.08988 20.0498 8.93242 20.8221 9.99999 20.3508C11.0676 19.8796 15.7587 16.7917 17.8564 14.2566C19.3055 12.5892 20 10.8932 20 9.01622Z" fill="white"/>
<path d="M16.6722 11.7287H13.8603C13.8106 11.7287 13.7629 11.708 13.7278 11.6711C13.6926 11.6342 13.6729 11.5841 13.6729 11.5319V6.95264V6.94772C13.6729 6.89554 13.6926 6.8455 13.7278 6.8086C13.7629 6.7717 13.8106 6.75098 13.8603 6.75098H16.6722C16.7219 6.75098 16.7696 6.7717 16.8048 6.8086C16.8399 6.8455 16.8597 6.89554 16.8597 6.94772V7.69241C16.8597 7.7446 16.8399 7.79464 16.8048 7.83153C16.7696 7.86843 16.7219 7.88916 16.6722 7.88916H14.7629V8.66139H16.6722C16.7219 8.66139 16.7696 8.68213 16.8048 8.71902C16.8399 8.75592 16.8597 8.80596 16.8597 8.85814V9.61464C16.8597 9.66682 16.8399 9.71686 16.8048 9.75375C16.7696 9.79065 16.7219 9.81138 16.6722 9.81138H14.7629V10.5846H16.6722C16.7219 10.5846 16.7696 10.6053 16.8048 10.6422C16.8399 10.6791 16.8597 10.7292 16.8597 10.7813V11.5251C16.8605 11.5515 16.8563 11.5778 16.8473 11.6025C16.8383 11.6271 16.8246 11.6496 16.8071 11.6687C16.7896 11.6877 16.7687 11.7028 16.7455 11.7131C16.7223 11.7234 16.6974 11.7287 16.6722 11.7287Z" fill="#00AD97"/>
<path d="M6.28087 11.7287C6.33059 11.7287 6.37827 11.7079 6.41342 11.671C6.44858 11.6341 6.46833 11.5841 6.46833 11.5319V10.7882C6.46833 10.736 6.44858 10.686 6.41342 10.6491C6.37827 10.6122 6.33059 10.5915 6.28087 10.5915H4.3716V6.95163C4.3716 6.89945 4.35185 6.84941 4.3167 6.81251C4.28154 6.77561 4.23386 6.75488 4.18414 6.75488H3.47554C3.42583 6.75488 3.37815 6.77561 3.34299 6.81251C3.30784 6.84941 3.28809 6.89945 3.28809 6.95163V11.529C3.28809 11.5811 3.30784 11.6312 3.34299 11.6681C3.37815 11.705 3.42583 11.7257 3.47554 11.7257H6.28743L6.28087 11.7287Z" fill="#00AD97"/>
<path d="M7.97109 6.74658H7.2625C7.1569 6.74658 7.07129 6.83643 7.07129 6.94726V11.5275C7.07129 11.6384 7.1569 11.7282 7.2625 11.7282H7.97109C8.07669 11.7282 8.1623 11.6384 8.1623 11.5275V6.94726C8.1623 6.83643 8.07669 6.74658 7.97109 6.74658Z" fill="#00AD97"/>
<path d="M12.7996 6.74658H12.0911C12.0413 6.74658 11.9936 6.76731 11.9585 6.80421C11.9233 6.84111 11.9036 6.89115 11.9036 6.94333V9.66435L9.90715 6.83414C9.9026 6.82664 9.89725 6.81972 9.89122 6.81348L9.87997 6.80167L9.86966 6.79282H9.86404L9.85372 6.78495H9.8481L9.83779 6.77905H9.83123H9.82092H9.81436H9.80311H9.79561H9.78436H9.77687H9.76656H9.0439C8.99419 6.77905 8.9465 6.79978 8.91135 6.83668C8.87619 6.87357 8.85645 6.92361 8.85645 6.97579V11.5561C8.85645 11.6083 8.87619 11.6583 8.91135 11.6952C8.9465 11.7321 8.99419 11.7528 9.0439 11.7528H9.75344C9.80315 11.7528 9.85083 11.7321 9.88599 11.6952C9.92114 11.6583 9.9409 11.6083 9.9409 11.5561V8.8085L11.9401 11.6417C11.9532 11.6617 11.9698 11.6791 11.9889 11.6928L12.0001 11.7007H12.0058H12.0151H12.0245H12.0311H12.0442C12.0608 11.705 12.0777 11.7073 12.0948 11.7076H12.7996C12.8494 11.7076 12.897 11.6868 12.9322 11.6499C12.9674 11.6131 12.9871 11.563 12.9871 11.5108V6.94727C12.9876 6.9211 12.9831 6.89509 12.9739 6.87077C12.9647 6.84644 12.951 6.82428 12.9335 6.80559C12.9161 6.7869 12.8953 6.77206 12.8723 6.76193C12.8493 6.7518 12.8246 6.74658 12.7996 6.74658Z" fill="#00AD97"/>
</svg>
