<svg width="90" height="13" viewBox="0 0 90 13" fill="none" xmlns="http://www.w3.org/2000/svg">
<path d="M3.664 0.799999H1.44C1.024 0.799999 0.8 1.024 0.8 1.44V11.36C0.8 11.776 1.024 12 1.44 12H3.664C5.36 12 6.48 11.328 6.48 9.632V3.168C6.48 1.472 5.36 0.799999 3.664 0.799999ZM4.624 3.456V9.344C4.624 10.144 4.208 10.368 3.6 10.368H2.656V2.432H3.6C4.208 2.432 4.624 2.656 4.624 3.456ZM12.8188 11.36V1.44C12.8188 1.024 12.5948 0.799999 12.1788 0.799999H11.6028C11.1868 0.799999 10.9628 1.024 10.9628 1.44V11.36C10.9628 11.776 11.1868 12 11.6028 12H12.1788C12.5948 12 12.8188 11.776 12.8188 11.36ZM22.2529 0.799999H21.7569C21.3729 0.799999 21.1329 0.992 21.0689 1.392L19.8689 9.104L18.6689 1.392C18.6049 0.992 18.3649 0.799999 17.9809 0.799999H17.3889C16.9569 0.799999 16.7329 1.04 16.8129 1.488L18.6849 11.424C18.7489 11.808 19.0049 12 19.3889 12H20.2529C20.6369 12 20.8929 11.808 20.9569 11.424L22.8289 1.488C22.9089 1.04 22.6849 0.799999 22.2529 0.799999ZM31.7281 11.36V11.008C31.7281 10.592 31.5041 10.368 31.0881 10.368H28.6241V7.136H30.5441C30.9601 7.136 31.1841 6.912 31.1841 6.496V6.144C31.1841 5.728 30.9601 5.504 30.5441 5.504H28.6241V2.432H31.0401C31.4561 2.432 31.6801 2.208 31.6801 1.792V1.44C31.6801 1.024 31.4561 0.799999 31.0401 0.799999H27.4081C26.9921 0.799999 26.7681 1.024 26.7681 1.44V11.36C26.7681 11.776 26.9921 12 27.4081 12H31.0881C31.5041 12 31.7281 11.776 31.7281 11.36ZM41.9168 5.152V11.36C41.9168 11.776 42.1408 12 42.5568 12H43.0688C43.4848 12 43.7088 11.776 43.7088 11.36V1.44C43.7088 1.024 43.4848 0.799999 43.0688 0.799999H42.4288C42.0608 0.799999 41.8208 0.976 41.7088 1.328L39.7088 7.312L37.7248 1.328C37.6128 0.959999 37.3728 0.799999 37.0048 0.799999H36.4288C36.0128 0.799999 35.7888 1.024 35.7888 1.44V11.36C35.7888 11.776 36.0128 12 36.4288 12H36.8768C37.2928 12 37.5168 11.776 37.5168 11.36V5.152L39.0208 9.84C39.1328 10.208 39.3728 10.368 39.7248 10.368C40.0768 10.368 40.3008 10.208 40.4128 9.84L41.9168 5.152ZM48.1204 3.04V9.76C48.1204 11.456 49.2404 12.128 50.9364 12.128H51.0644C52.7604 12.128 53.8804 11.456 53.8804 9.76V3.04C53.8804 1.344 52.7604 0.672 51.0644 0.672H50.9364C49.2404 0.672 48.1204 1.328 48.1204 3.04ZM49.9764 9.472V3.328C49.9764 2.528 50.3924 2.304 51.0004 2.304C51.6084 2.304 52.0244 2.528 52.0244 3.328V9.472C52.0244 10.272 51.6084 10.496 51.0004 10.496C50.3924 10.496 49.9764 10.272 49.9764 9.472ZM62.4922 0.799999H58.1722C57.7562 0.799999 57.5322 1.024 57.5322 1.44V1.792C57.5322 2.208 57.7562 2.432 58.1722 2.432H59.4042V11.36C59.4042 11.776 59.6282 12 60.0442 12H60.6202C61.0362 12 61.2602 11.776 61.2602 11.36V2.432H62.4922C62.9082 2.432 63.1322 2.208 63.1322 1.792V1.44C63.1322 1.024 62.9082 0.799999 62.4922 0.799999ZM68.8331 11.36V1.44C68.8331 1.024 68.6091 0.799999 68.1931 0.799999H67.6171C67.2011 0.799999 66.9771 1.024 66.9771 1.44V11.36C66.9771 11.776 67.2011 12 67.6171 12H68.1931C68.6091 12 68.8331 11.776 68.8331 11.36ZM73.3073 3.04V9.76C73.3073 11.456 74.4273 12.128 76.1233 12.128H76.2513C77.9473 12.128 79.0673 11.456 79.0673 9.76V3.04C79.0673 1.344 77.9473 0.672 76.2513 0.672H76.1233C74.4273 0.672 73.3073 1.328 73.3073 3.04ZM75.1633 9.472V3.328C75.1633 2.528 75.5793 2.304 76.1873 2.304C76.7953 2.304 77.2113 2.528 77.2113 3.328V9.472C77.2113 10.272 76.7953 10.496 76.1873 10.496C75.5793 10.496 75.1633 10.272 75.1633 9.472ZM85.1816 11.36V4.72L87.4536 11.472C87.5656 11.824 87.8056 12 88.1736 12H88.7496C89.1656 12 89.3896 11.776 89.3896 11.36V1.44C89.3896 1.024 89.1656 0.799999 88.7496 0.799999H88.3336C87.9176 0.799999 87.6936 1.024 87.6936 1.44V7.728L85.5176 1.328C85.4056 0.976 85.1656 0.799999 84.7976 0.799999H84.1256C83.7096 0.799999 83.4856 1.024 83.4856 1.44V11.36C83.4856 11.776 83.7096 12 84.1256 12H84.5416C84.9576 12 85.1816 11.776 85.1816 11.36Z" fill="#00AD97"/>
</svg>
