<svg width="20" height="21" viewBox="0 0 20 21" fill="none" xmlns="http://www.w3.org/2000/svg">
<path d="M12.2626 10.1234C12.3144 9.2375 12.0925 8.30087 11.9764 7.42952C11.8132 6.20693 11.6991 4.57612 13.0437 3.96224C13.8077 3.61307 14.353 4.35854 14.1877 5.08536C14.1198 5.38583 13.9871 5.67179 13.9482 5.97744C13.9083 6.29293 14.0679 6.53589 14.3909 6.42917C14.7138 6.32246 14.9724 5.49669 15.0922 5.22161C15.4125 4.49064 15.8609 3.55039 16.7996 3.5307C17.8249 3.50946 17.8845 4.50826 17.5538 5.23611C17.1153 6.2002 16.1848 6.83325 15.5514 7.65746C14.789 8.649 14.2312 9.77523 13.9814 11.0014C13.8668 11.562 14.3328 11.6749 14.7164 11.3501C15.723 10.4932 16.1263 9.1111 16.8369 8.02165C17.2163 7.43988 18.5122 5.86709 19.2114 6.95085C19.5048 7.40621 19.2296 7.917 18.9004 8.27756C18.492 8.7236 17.9037 9.08986 17.6963 9.68458C17.4346 10.4352 18.1172 10.1234 18.5044 9.91355C18.7885 9.75814 19.214 9.4126 19.5644 9.50222C20.1346 9.64883 20.0563 10.2135 19.8293 10.6248C19.2208 11.7252 17.8731 12.1106 16.7353 12.4105C15.9397 12.6209 15.1285 12.8131 14.3986 13.2042C13.7087 13.5741 13.0935 14.1398 12.8281 14.8723C12.7809 15.0034 12.7482 15.1614 12.8327 15.2733C13.0815 15.6027 13.6388 15.2391 13.8902 15.0909C15.2741 14.2745 16.8167 13.2337 18.4961 13.2834C18.8004 13.2923 19.115 13.3451 19.3638 13.5192C19.6126 13.6932 19.7785 14.0134 19.6898 14.3035C19.6328 14.4952 19.4794 14.6444 19.3125 14.7568C18.8216 15.0862 18.2058 15.152 17.6222 15.2541C17.1469 15.337 16.4896 15.4691 16.1657 15.8659C15.9402 16.142 16.0858 16.3321 16.3943 16.3922C16.9831 16.5114 17.5709 16.2886 18.1566 16.2886C18.5676 16.2886 19.3835 16.5477 19.3431 17.0797C19.2995 17.6392 18.5391 17.8417 18.0913 17.9433C17.2878 18.1298 16.4539 18.1447 15.6442 17.9868C14.5313 17.7614 10.9698 15.9923 11.0465 18.4012C11.0559 18.6799 11.1839 18.941 11.2352 19.2151C11.3078 19.6005 11.2166 20.0237 10.9527 20.3154C10.6049 20.7008 10.0482 20.7661 9.63769 20.4553C9.28626 20.1895 9.10795 19.7559 8.99858 19.3306C8.85396 18.7701 8.7363 17.8547 8.1625 17.5174C7.36218 17.0512 6.28093 17.993 5.54385 18.2184C4.6917 18.4774 3.48656 18.796 2.74482 18.1147C2.64273 18.0235 2.56263 17.9103 2.51053 17.7837C2.32755 17.3175 2.62819 17.0004 2.95993 16.8181C3.35076 16.6036 5.23129 16.7725 5.23596 16.2218C5.23958 15.8022 4.02252 15.7012 3.72759 15.682C3.0299 15.6364 2.28971 15.7069 1.66512 15.3323C0.854433 14.8454 0.623773 13.3466 2.03521 13.2746C2.21337 13.2677 2.3917 13.2832 2.56599 13.3207C3.83851 13.5839 5.11052 13.8751 6.32965 14.3273C6.86769 14.5268 8.08475 14.8972 7.83854 13.8119C7.59907 12.7566 6.45302 12.4696 5.54489 12.2152C3.94425 11.7671 2.17983 11.9956 0.63984 11.4081C0.482025 11.351 0.341549 11.2543 0.2319 11.1273C0.12225 11.0003 0.0471079 10.8472 0.0136871 10.6829C-0.106049 10.0146 0.58386 9.69857 1.14419 9.7571C1.43705 9.78871 3.22376 10.6518 3.13772 9.78767C3.03405 8.72878 1.21572 9.06707 0.826443 8.12992C0.510256 7.36995 1.153 6.5504 1.96212 6.58459C2.8433 6.62137 3.42903 7.40465 3.90175 8.04755C4.50769 8.87124 5.06905 9.63433 6.05338 10.0871C6.19869 10.1558 6.35993 10.1837 6.51988 10.1679C7.53583 10.0519 6.65932 8.69614 6.35661 8.29673C5.5454 7.228 4.59425 6.26962 3.80586 5.18068C3.46427 4.70771 3.10455 4.1736 3.26005 3.58044C3.47671 2.75156 4.34182 2.66401 5.03225 2.95878C6.05234 3.39601 6.61992 4.6502 7.02215 5.60444C7.16418 5.94117 7.32072 6.28257 7.58403 6.53693C8.04587 6.984 8.65233 6.90526 8.97837 6.35561C9.98757 4.65383 6.87702 3.73171 6.91227 2.15943C6.92522 1.60461 7.44823 1.0876 8.03343 1.09381C8.80213 1.1021 8.85863 1.99521 9.44176 2.30242C10.3136 2.76089 10.7226 1.35957 11.0533 0.830646C11.5286 0.0711901 12.4725 0.237484 12.6601 1.12127C12.8944 2.2387 12.1195 3.23542 11.64 4.17774C10.5121 6.39757 9.80719 8.74329 10.4437 11.2403C10.4947 11.4492 10.5687 11.6518 10.6645 11.8443C10.7739 12.0609 10.9512 12.323 11.2803 12.1888C11.3607 12.155 11.4327 12.1041 11.4913 12.0396C12.0252 11.4661 12.2247 10.8082 12.2626 10.1234Z" fill="#00AD97"/>
</svg>
