<svg width="22" height="23" viewBox="0 0 22 23" fill="none" xmlns="http://www.w3.org/2000/svg">
<path d="M2.11036 6.5006C1.88059 6.34742 1.57016 6.40951 1.41698 6.63928C1.26381 6.86904 1.32589 7.17947 1.55566 7.33265L2.11036 6.5006ZM6.59403 10.0906L6.87138 9.67462L6.59403 10.0906ZM15.4053 10.0906L15.6827 10.5067L15.6827 10.5067L15.4053 10.0906ZM20.4437 7.33265C20.6735 7.17947 20.7355 6.86904 20.5824 6.63928C20.4292 6.40951 20.1188 6.34742 19.889 6.5006L20.4437 7.33265ZM14.8447 10.4302L15.0448 10.8884H15.0448L14.8447 10.4302ZM14.433 10.5548L14.5207 11.0471L14.433 10.5548ZM7.15462 10.4302L6.95458 10.8884L7.15462 10.4302ZM7.56637 10.5548L7.47863 11.0471L7.56637 10.5548ZM3.33453 18.5336L3.10754 18.9791L3.33453 18.5336ZM2.13274 17.3318L1.68724 17.5588L2.13274 17.3318ZM19.8666 17.3318L20.3121 17.5588L19.8666 17.3318ZM18.6648 18.5336L18.8918 18.9791L18.6648 18.5336ZM18.6648 4.46636L18.8918 4.02085L18.6648 4.46636ZM19.8666 5.66815L20.3121 5.44116L19.8666 5.66815ZM3.33453 4.46636L3.10754 4.02085L3.33453 4.46636ZM2.13274 5.66815L1.68724 5.44116L2.13274 5.66815ZM1.55566 7.33265L6.31668 10.5067L6.87138 9.67462L2.11036 6.5006L1.55566 7.33265ZM15.6827 10.5067L20.4437 7.33265L19.889 6.5006L15.128 9.67461L15.6827 10.5067ZM8.22115 11.0833H13.7782V10.0833H8.22115V11.0833ZM15.128 9.67461C14.839 9.86727 14.7434 9.92883 14.6447 9.97193L15.0448 10.8884C15.2432 10.8018 15.4223 10.6802 15.6827 10.5067L15.128 9.67461ZM13.7782 11.0833C14.0911 11.0833 14.3076 11.0851 14.5207 11.0471L14.3452 10.0626C14.2392 10.0815 14.1255 10.0833 13.7782 10.0833V11.0833ZM14.6447 9.97193C14.5488 10.0138 14.4483 10.0442 14.3452 10.0626L14.5207 11.0471C14.701 11.0149 14.8769 10.9617 15.0448 10.8884L14.6447 9.97193ZM6.31668 10.5067C6.57703 10.6802 6.75616 10.8018 6.95458 10.8884L7.35466 9.97193C7.25592 9.92883 7.16037 9.86728 6.87138 9.67462L6.31668 10.5067ZM8.22115 10.0833C7.87382 10.0833 7.76018 10.0815 7.65411 10.0626L7.47863 11.0471C7.69177 11.0851 7.90824 11.0833 8.22115 11.0833V10.0833ZM6.95458 10.8884C7.12243 10.9617 7.29832 11.0149 7.47863 11.0471L7.65411 10.0626C7.55108 10.0442 7.45057 10.0138 7.35466 9.97193L6.95458 10.8884ZM6.23301 4.66663H15.7663V3.66663H6.23301V4.66663ZM19.6663 8.56663V14.4333H20.6663V8.56663H19.6663ZM15.7663 18.3333H6.23301V19.3333H15.7663V18.3333ZM2.33301 14.4333V8.56663H1.33301V14.4333H2.33301ZM6.23301 18.3333C5.45469 18.3333 4.90101 18.3329 4.46753 18.2975C4.03988 18.2625 3.77342 18.196 3.56153 18.0881L3.10754 18.9791C3.4839 19.1708 3.89661 19.2542 4.3861 19.2942C4.86975 19.3337 5.47119 19.3333 6.23301 19.3333V18.3333ZM1.33301 14.4333C1.33301 15.1951 1.33262 15.7966 1.37213 16.2802C1.41213 16.7697 1.49547 17.1824 1.68724 17.5588L2.57824 17.1048C2.47028 16.8929 2.40375 16.6264 2.36881 16.1988C2.3334 15.7653 2.33301 15.2116 2.33301 14.4333H1.33301ZM3.56153 18.0881C3.13816 17.8723 2.79396 17.5281 2.57824 17.1048L1.68724 17.5588C1.99883 18.1703 2.49601 18.6675 3.10754 18.9791L3.56153 18.0881ZM19.6663 14.4333C19.6663 15.2116 19.666 15.7653 19.6305 16.1988C19.5956 16.6264 19.5291 16.8929 19.4211 17.1048L20.3121 17.5588C20.5039 17.1824 20.5872 16.7697 20.6272 16.2802C20.6667 15.7966 20.6663 15.1951 20.6663 14.4333H19.6663ZM15.7663 19.3333C16.5282 19.3333 17.1296 19.3337 17.6133 19.2942C18.1027 19.2542 18.5154 19.1708 18.8918 18.9791L18.4378 18.0881C18.2259 18.196 17.9595 18.2625 17.5318 18.2975C17.0983 18.3329 16.5447 18.3333 15.7663 18.3333V19.3333ZM19.4211 17.1048C19.2054 17.5281 18.8612 17.8723 18.4378 18.0881L18.8918 18.9791C19.5033 18.6675 20.0005 18.1703 20.3121 17.5588L19.4211 17.1048ZM15.7663 4.66663C16.5447 4.66663 17.0983 4.66701 17.5318 4.70243C17.9595 4.73737 18.2259 4.8039 18.4378 4.91186L18.8918 4.02085C18.5154 3.82909 18.1027 3.74575 17.6133 3.70575C17.1296 3.66624 16.5282 3.66663 15.7663 3.66663V4.66663ZM20.6663 8.56663C20.6663 7.8048 20.6667 7.20337 20.6272 6.71972C20.5872 6.23023 20.5039 5.81752 20.3121 5.44116L19.4211 5.89515C19.5291 6.10704 19.5956 6.3735 19.6305 6.80115C19.666 7.23463 19.6663 7.7883 19.6663 8.56663H20.6663ZM18.4378 4.91186C18.8612 5.12758 19.2054 5.47178 19.4211 5.89515L20.3121 5.44116C20.0005 4.82963 19.5033 4.33244 18.8918 4.02085L18.4378 4.91186ZM6.23301 3.66663C5.47119 3.66663 4.86975 3.66624 4.3861 3.70575C3.89661 3.74575 3.4839 3.82909 3.10754 4.02085L3.56153 4.91186C3.77342 4.8039 4.03988 4.73737 4.46753 4.70243C4.90101 4.66701 5.45469 4.66663 6.23301 4.66663V3.66663ZM2.33301 8.56663C2.33301 7.7883 2.3334 7.23463 2.36881 6.80115C2.40375 6.3735 2.47028 6.10704 2.57824 5.89515L1.68724 5.44116C1.49547 5.81752 1.41213 6.23023 1.37213 6.71972C1.33262 7.20337 1.33301 7.8048 1.33301 8.56663H2.33301ZM3.10754 4.02085C2.49601 4.33244 1.99883 4.82963 1.68724 5.44116L2.57824 5.89515C2.79396 5.47178 3.13816 5.12758 3.56153 4.91186L3.10754 4.02085Z" fill="#1D2939"/>
</svg>
