<svg width="14" height="11" viewBox="0 0 14 11" fill="none" xmlns="http://www.w3.org/2000/svg">
<path d="M1.1665 3.28335L2.1665 3.28335L1.1665 3.28335ZM1.29366 2.0537L2.18467 2.50769L1.29366 2.0537ZM3.03317 1.41669L3.03317 0.416687L3.03317 1.41669ZM1.80352 1.54385L1.34952 0.652839L1.34952 0.652839L1.80352 1.54385ZM3.03317 9.58335L3.03317 8.58335H3.03317L3.03317 9.58335ZM1.80351 9.45619L2.25751 8.56519L1.80351 9.45619ZM1.1665 7.71669L0.166504 7.71669L1.1665 7.71669ZM1.29366 8.94634L0.402656 9.40033L1.29366 8.94634ZM12.706 8.94634L11.815 8.49235L12.706 8.94634ZM10.9665 9.58335L10.9665 10.5834L10.9665 10.5834L10.9665 9.58335ZM12.1962 9.4562L11.7422 8.56519L11.7422 8.56519L12.1962 9.4562ZM12.706 2.0537L13.597 1.59971L12.706 2.0537ZM10.9665 1.41669L10.9665 2.41669L10.9665 1.41669ZM12.1962 1.54385L11.7422 2.43485L12.1962 1.54385ZM8.1665 4.75002C8.71879 4.75002 9.1665 4.30231 9.1665 3.75002C9.1665 3.19774 8.71879 2.75002 8.1665 2.75002V4.75002ZM5.83317 6.25002C5.28089 6.25002 4.83317 6.69774 4.83317 7.25002C4.83317 7.80231 5.28089 8.25002 5.83317 8.25002V6.25002ZM7.99984 3.16669C7.99984 2.6144 7.55212 2.16669 6.99984 2.16669C6.44755 2.16669 5.99984 2.6144 5.99984 3.16669H7.99984ZM5.99984 3.75002C5.99984 4.30231 6.44755 4.75002 6.99984 4.75002C7.55212 4.75002 7.99984 4.30231 7.99984 3.75002H5.99984ZM7.99984 7.25002C7.99984 6.69774 7.55212 6.25002 6.99984 6.25002C6.44755 6.25002 5.99984 6.69774 5.99984 7.25002H7.99984ZM5.99984 7.83335C5.99984 8.38564 6.44755 8.83335 6.99984 8.83335C7.55212 8.83335 7.99984 8.38564 7.99984 7.83335H5.99984ZM10.4998 4.50002C9.94755 4.50002 9.49984 4.94774 9.49984 5.50002C9.49984 6.05231 9.94755 6.50002 10.4998 6.50002V4.50002ZM10.5057 6.50002C11.058 6.50002 11.5057 6.05231 11.5057 5.50002C11.5057 4.94774 11.058 4.50002 10.5057 4.50002V6.50002ZM3.49984 4.50002C2.94755 4.50002 2.49984 4.94774 2.49984 5.50002C2.49984 6.05231 2.94755 6.50002 3.49984 6.50002V4.50002ZM3.50567 6.50002C4.05796 6.50002 4.50567 6.05231 4.50567 5.50002C4.50567 4.94774 4.05796 4.50002 3.50567 4.50002V6.50002ZM11.8332 3.28335V7.71669H13.8332V3.28335H11.8332ZM10.9665 8.58335L3.03317 8.58335L3.03317 10.5834L10.9665 10.5834L10.9665 8.58335ZM2.1665 7.71669L2.1665 3.28335L0.166504 3.28335L0.166504 7.71669L2.1665 7.71669ZM3.03317 2.41669L10.9665 2.41669L10.9665 0.416688L3.03317 0.416687L3.03317 2.41669ZM2.1665 3.28335C2.1665 2.94016 2.16728 2.7429 2.17908 2.59852C2.18992 2.46582 2.20489 2.468 2.18467 2.50769L0.402657 1.59971C0.255276 1.88896 0.206667 2.17927 0.18572 2.43566C0.165726 2.68037 0.166504 2.97316 0.166504 3.28335L2.1665 3.28335ZM3.03317 0.416687C2.72297 0.416687 2.43019 0.415909 2.18547 0.435903C1.92909 0.45685 1.63877 0.505459 1.34952 0.652839L2.25751 2.43485C2.21782 2.45507 2.21564 2.4401 2.34834 2.42926C2.49272 2.41746 2.68997 2.41669 3.03317 2.41669L3.03317 0.416687ZM2.18467 2.50769C2.20065 2.47633 2.22615 2.45083 2.25751 2.43485L1.34952 0.652839C0.94184 0.860565 0.610382 1.19202 0.402657 1.59971L2.18467 2.50769ZM3.03317 8.58335C2.68997 8.58335 2.49272 8.58258 2.34834 8.57078C2.21563 8.55994 2.21782 8.54497 2.25751 8.56519L1.34952 10.3472C1.63877 10.4946 1.92909 10.5432 2.18547 10.5641C2.43018 10.5841 2.72297 10.5834 3.03317 10.5834L3.03317 8.58335ZM0.166504 7.71669C0.166504 8.02688 0.165726 8.31967 0.18572 8.56438C0.206667 8.82077 0.255276 9.11108 0.402656 9.40033L2.18467 8.49235C2.20489 8.53204 2.18992 8.53422 2.17908 8.40152C2.16728 8.25714 2.1665 8.05988 2.1665 7.71669L0.166504 7.71669ZM2.25751 8.56519C2.22615 8.54921 2.20065 8.52371 2.18467 8.49235L0.402656 9.40033C0.610382 9.80802 0.94184 10.1395 1.34952 10.3472L2.25751 8.56519ZM11.8332 7.71669C11.8332 8.05989 11.8324 8.25714 11.8206 8.40152C11.8098 8.53422 11.7948 8.53204 11.815 8.49235L13.597 9.40033C13.7444 9.11108 13.793 8.82077 13.814 8.56438C13.8339 8.31967 13.8332 8.02688 13.8332 7.71669H11.8332ZM10.9665 10.5834C11.2767 10.5834 11.5695 10.5841 11.8142 10.5641C12.0706 10.5432 12.3609 10.4946 12.6502 10.3472L11.7422 8.56519C11.7819 8.54497 11.784 8.55994 11.6513 8.57078C11.507 8.58258 11.3097 8.58335 10.9665 8.58335L10.9665 10.5834ZM11.815 8.49235C11.799 8.52371 11.7735 8.54921 11.7422 8.56519L12.6502 10.3472C13.0578 10.1395 13.3893 9.80802 13.597 9.40033L11.815 8.49235ZM13.8332 3.28335C13.8332 2.97316 13.8339 2.68037 13.814 2.43566C13.793 2.17927 13.7444 1.88896 13.597 1.59971L11.815 2.50769C11.7948 2.468 11.8098 2.46582 11.8206 2.59852C11.8324 2.7429 11.8332 2.94016 11.8332 3.28335H13.8332ZM10.9665 2.41669C11.3097 2.41669 11.507 2.41747 11.6513 2.42926C11.784 2.4401 11.7819 2.45507 11.7422 2.43485L12.6502 0.65284C12.3609 0.50546 12.0706 0.456851 11.8142 0.435904C11.5695 0.41591 11.2767 0.416688 10.9665 0.416688L10.9665 2.41669ZM13.597 1.59971C13.3893 1.19202 13.0578 0.860566 12.6502 0.65284L11.7422 2.43485C11.7735 2.45083 11.799 2.47633 11.815 2.50769L13.597 1.59971ZM8.1665 2.75002H6.70817V4.75002H8.1665V2.75002ZM6.70817 6.50002H7.2915V4.50002H6.70817V6.50002ZM7.2915 6.25002H5.83317V8.25002H7.2915V6.25002ZM7.1665 6.37502C7.1665 6.30599 7.22247 6.25002 7.2915 6.25002V8.25002C8.32704 8.25002 9.1665 7.41055 9.1665 6.37502H7.1665ZM7.2915 6.50002C7.22247 6.50002 7.1665 6.44406 7.1665 6.37502H9.1665C9.1665 5.33949 8.32704 4.50002 7.2915 4.50002V6.50002ZM4.83317 4.62502C4.83317 5.66055 5.67264 6.50002 6.70817 6.50002V4.50002C6.77721 4.50002 6.83317 4.55598 6.83317 4.62502H4.83317ZM6.70817 2.75002C5.67264 2.75002 4.83317 3.58949 4.83317 4.62502H6.83317C6.83317 4.69406 6.77721 4.75002 6.70817 4.75002V2.75002ZM5.99984 3.16669V3.75002H7.99984V3.16669H5.99984ZM5.99984 7.25002V7.83335H7.99984V7.25002H5.99984ZM10.4998 6.50002H10.5057V4.50002H10.4998V6.50002ZM9.7915 5.50002C9.7915 5.10882 10.1086 4.79169 10.4998 4.79169V6.79169C11.2132 6.79169 11.7915 6.21339 11.7915 5.50002H9.7915ZM10.4998 4.79169C10.891 4.79169 11.2082 5.10882 11.2082 5.50002H9.20817C9.20817 6.21339 9.78647 6.79169 10.4998 6.79169V4.79169ZM11.2082 5.50002C11.2082 5.89122 10.891 6.20835 10.4998 6.20835V4.20835C9.78647 4.20835 9.20817 4.78665 9.20817 5.50002H11.2082ZM10.4998 6.20835C10.1086 6.20835 9.7915 5.89122 9.7915 5.50002H11.7915C11.7915 4.78665 11.2132 4.20835 10.4998 4.20835V6.20835ZM3.49984 6.50002H3.50567V4.50002H3.49984V6.50002ZM2.7915 5.50002C2.7915 5.10882 3.10864 4.79169 3.49984 4.79169V6.79169C4.21321 6.79169 4.7915 6.21339 4.7915 5.50002H2.7915ZM3.49984 4.79169C3.89104 4.79169 4.20817 5.10882 4.20817 5.50002H2.20817C2.20817 6.21339 2.78647 6.79169 3.49984 6.79169V4.79169ZM4.20817 5.50002C4.20817 5.89122 3.89104 6.20835 3.49984 6.20835V4.20835C2.78647 4.20835 2.20817 4.78665 2.20817 5.50002H4.20817ZM3.49984 6.20835C3.10864 6.20835 2.7915 5.89122 2.7915 5.50002H4.7915C4.7915 4.78665 4.21321 4.20835 3.49984 4.20835V6.20835Z" fill="#667085"/>
</svg>
