<svg width="23" height="14" viewBox="0 0 23 14" fill="none" xmlns="http://www.w3.org/2000/svg">
<path fill-rule="evenodd" clip-rule="evenodd" d="M6.00675 4.31292e-07H13.4893C14.2943 -1.23241e-05 14.9587 -2.28137e-05 15.4999 0.0441945C16.062 0.0901197 16.5787 0.188684 17.064 0.435975C17.8167 0.819468 18.4286 1.43139 18.8121 2.18404C19.0594 2.66937 19.1579 3.18608 19.2039 3.74817C19.2481 4.28936 19.2481 4.95372 19.248 5.75868V8.24133C19.2481 9.04628 19.2481 9.71064 19.2039 10.2518C19.1579 10.8139 19.0594 11.3306 18.8121 11.816C18.4286 12.5686 17.8167 13.1805 17.064 13.564C16.5787 13.8113 16.062 13.9099 15.4999 13.9558C14.9587 14 14.2943 14 13.4893 14H6.00677C5.20179 14 4.53742 14 3.99622 13.9558C3.43412 13.9099 2.91742 13.8113 2.43209 13.564C1.67944 13.1805 1.06752 12.5686 0.684022 11.816C0.436731 11.3306 0.338167 10.8139 0.292241 10.2518C0.248024 9.71063 0.248035 9.04627 0.248047 8.2413V5.7587C0.248035 4.95373 0.248024 4.28937 0.292241 3.74817C0.338167 3.18608 0.436731 2.66937 0.684022 2.18404C1.06752 1.43139 1.67944 0.819468 2.43209 0.435975C2.91742 0.188684 3.43412 0.0901197 3.99622 0.0441945C4.53742 -2.28137e-05 5.20178 -1.23241e-05 6.00675 4.31292e-07ZM4.15909 2.03755C3.72067 2.07337 3.49647 2.1383 3.34007 2.21799C2.96374 2.40973 2.65778 2.7157 2.46603 3.09202C2.38635 3.24842 2.32142 3.47262 2.2856 3.91104C2.24883 4.36113 2.24805 4.94342 2.24805 5.8V8.2C2.24805 9.05658 2.24883 9.63887 2.2856 10.089C2.32142 10.5274 2.38635 10.7516 2.46603 10.908C2.65778 11.2843 2.96374 11.5903 3.34007 11.782C3.49647 11.8617 3.72067 11.9266 4.15909 11.9624C4.60917 11.9992 5.19147 12 6.04805 12H13.448C14.3046 12 14.8869 11.9992 15.337 11.9624C15.7754 11.9266 15.9996 11.8617 16.156 11.782C16.5324 11.5903 16.8383 11.2843 17.0301 10.908C17.1097 10.7516 17.1747 10.5274 17.2105 10.089C17.2473 9.63887 17.248 9.05658 17.248 8.2V5.8C17.248 4.94342 17.2473 4.36113 17.2105 3.91104C17.1747 3.47262 17.1097 3.24842 17.0301 3.09202C16.8383 2.7157 16.5324 2.40973 16.156 2.21799C15.9996 2.1383 15.7754 2.07337 15.337 2.03755C14.8869 2.00078 14.3046 2 13.448 2H6.04805C5.19147 2 4.60917 2.00078 4.15909 2.03755ZM21.248 5C21.8003 5 22.248 5.44772 22.248 6V8C22.248 8.55229 21.8003 9 21.248 9C20.6958 9 20.248 8.55229 20.248 8V6C20.248 5.44772 20.6958 5 21.248 5Z" fill="#101828"/>
</svg>
