<svg width="22" height="23" viewBox="0 0 22 23" fill="none" xmlns="http://www.w3.org/2000/svg">
<path d="M7.68192 8.61545L7.23118 8.83186L7.23118 8.83186L7.68192 8.61545ZM13.9668 14.9003L14.1832 14.4496L14.1832 14.4496L13.9668 14.9003ZM2.90697 7.61453L3.38797 7.478L3.38797 7.478L2.90697 7.61453ZM14.9677 19.6753L15.1042 19.1943L15.1042 19.1943L14.9677 19.6753ZM18.6801 14.8466L18.3266 15.2001L18.3266 15.2001L18.6801 14.8466ZM18.5015 14.6679L18.8551 14.3144L18.8551 14.3144L18.5015 14.6679ZM17.8597 14.0825L18.1322 13.6633L18.1322 13.6633L17.8597 14.0825ZM15.861 14.0825L16.1336 14.5016L16.1336 14.5016L15.861 14.0825ZM19.5432 17.4938L19.097 17.2682L19.097 17.2682L19.5432 17.4938ZM19.5432 15.8389L19.097 16.0646L19.097 16.0646L19.5432 15.8389ZM8.49977 4.72255L8.91896 4.45001L8.91895 4.45001L8.49977 4.72255ZM8.49977 6.72122L8.08058 6.44867L8.08058 6.44867L8.49977 6.72122ZM5.08839 3.03904L4.86272 2.59286L4.86272 2.59286L5.08839 3.03904ZM6.74333 3.03904L6.51766 3.48521L6.51766 3.48521L6.74333 3.03904ZM16.1223 19.8967L16.1238 19.3967L16.1238 19.3967L16.1223 19.8967ZM17.4774 19.5443L17.2325 19.1084L17.2325 19.1084L17.4774 19.5443ZM2.68555 6.45988L3.18555 6.45839L3.18555 6.45839L2.68555 6.45988ZM3.03794 5.10484L2.60201 4.85996L2.60201 4.85996L3.03794 5.10484ZM14.2105 15.0037L14.3505 14.5237L14.3505 14.5237L14.2105 15.0037ZM15.0007 14.869L15.2918 15.2755L15.2918 15.2755L15.0007 14.869ZM7.57852 8.37169L7.0985 8.51161L7.0985 8.51161L7.57852 8.37169ZM7.71326 7.58148L7.30674 7.29038L7.30674 7.29039L7.71326 7.58148ZM10.6446 11.9376C9.58364 10.8766 8.74657 9.67769 8.13266 8.39904L7.23118 8.83186C7.89327 10.2108 8.79564 11.5028 9.93753 12.6447L10.6446 11.9376ZM14.1832 14.4496C12.9045 13.8357 11.7056 12.9986 10.6446 11.9376L9.93753 12.6447C11.0794 13.7866 12.3714 14.689 13.7504 15.351L14.1832 14.4496ZM7.72782 14.8544C5.60067 12.7272 4.15451 10.1787 3.38797 7.478L2.42597 7.75105C3.23787 10.6116 4.76991 13.3107 7.02072 15.5615L7.72782 14.8544ZM15.1042 19.1943C12.4035 18.4277 9.85498 16.9816 7.72782 14.8544L7.02072 15.5615C9.27153 17.8123 11.9706 19.3444 14.8312 20.1563L15.1042 19.1943ZM4.30512 4.40014L4.44962 4.25564L3.74251 3.54853L3.59801 3.69303L4.30512 4.40014ZM7.38211 4.25564L7.56074 4.43427L8.26785 3.72716L8.08922 3.54853L7.38211 4.25564ZM18.8892 18.9842L19.0337 18.8397L18.3266 18.1326L18.1821 18.2771L18.8892 18.9842ZM19.0337 14.493L18.8551 14.3144L18.148 15.0215L18.3266 15.2001L19.0337 14.493ZM18.8551 14.3144C18.5526 14.012 18.3484 13.8038 18.1322 13.6633L17.5871 14.5016C17.6932 14.5706 17.8094 14.683 18.148 15.0215L18.8551 14.3144ZM15.5727 15.0215C15.9112 14.683 16.0274 14.5706 16.1336 14.5016L15.5885 13.6633C15.3723 13.8038 15.168 14.012 14.8656 14.3144L15.5727 15.0215ZM18.1322 13.6633C17.3588 13.1604 16.3618 13.1604 15.5885 13.6633L16.1336 14.5016C16.5755 14.2143 17.1452 14.2143 17.5871 14.5016L18.1322 13.6633ZM19.0337 18.8397C19.4931 18.3803 19.8119 18.0704 19.9894 17.7195L19.097 17.2682C19.0099 17.4404 18.8415 17.6177 18.3266 18.1326L19.0337 18.8397ZM18.3266 15.2001C18.8415 15.7151 19.0099 15.8923 19.097 16.0646L19.9894 15.6132C19.8119 15.2623 19.4931 14.9524 19.0337 14.493L18.3266 15.2001ZM19.9894 17.7195C20.3243 17.0573 20.3243 16.2754 19.9894 15.6132L19.097 16.0646C19.2884 16.4429 19.2884 16.8898 19.097 17.2682L19.9894 17.7195ZM7.56074 4.43427C7.89927 4.77279 8.01159 4.88899 8.08058 4.9951L8.91895 4.45001C8.77842 4.23386 8.57027 4.02958 8.26785 3.72716L7.56074 4.43427ZM8.26785 7.71661C8.57027 7.41419 8.77842 7.20991 8.91896 6.99376L8.08058 6.44867C8.01159 6.55478 7.89927 6.67098 7.56074 7.0095L8.26785 7.71661ZM8.08058 4.9951C8.36791 5.43703 8.36791 6.00675 8.08058 6.44867L8.91895 6.99376C9.42178 6.22039 9.42178 5.22338 8.91896 4.45001L8.08058 4.9951ZM4.44962 4.25564C4.96456 3.74069 5.1418 3.57234 5.31407 3.48521L4.86272 2.59286C4.51179 2.77036 4.20187 3.08917 3.74251 3.54853L4.44962 4.25564ZM8.08922 3.54853C7.62985 3.08917 7.31994 2.77036 6.96901 2.59286L6.51766 3.48521C6.68993 3.57234 6.86717 3.74069 7.38211 4.25564L8.08922 3.54853ZM5.31407 3.48521C5.69244 3.29383 6.13929 3.29383 6.51766 3.48521L6.96901 2.59286C6.30685 2.25795 5.52488 2.25795 4.86272 2.59286L5.31407 3.48521ZM14.8312 20.1563C15.3397 20.3006 15.663 20.3953 16.1209 20.3967L16.1238 19.3967C15.8247 19.3958 15.6305 19.3436 15.1042 19.1943L14.8312 20.1563ZM18.1821 18.2771C17.6813 18.7779 17.49 18.9637 17.2325 19.1084L17.7223 19.9802C18.1249 19.7541 18.419 19.4544 18.8892 18.9842L18.1821 18.2771ZM16.1209 20.3967C16.6272 20.3982 17.2808 20.2282 17.7223 19.9802L17.2325 19.1084C16.9415 19.2718 16.4576 19.3977 16.1238 19.3967L16.1209 20.3967ZM3.38797 7.478C3.23858 6.95169 3.18644 6.75756 3.18555 6.45839L2.18556 6.46137C2.18692 6.91927 2.28164 7.24254 2.42597 7.75105L3.38797 7.478ZM3.59801 3.69303C3.12782 4.16322 2.82817 4.45736 2.60201 4.85996L3.47387 5.34973C3.61849 5.09227 3.80433 4.90092 4.30512 4.40014L3.59801 3.69303ZM3.18555 6.45839C3.18456 6.12463 3.3104 5.64072 3.47387 5.34972L2.60201 4.85996C2.35404 5.3014 2.18405 5.95505 2.18556 6.46137L3.18555 6.45839ZM13.7504 15.351C13.8552 15.4014 13.9512 15.4489 14.0706 15.4837L14.3505 14.5237C14.3252 14.5163 14.3069 14.509 14.1832 14.4496L13.7504 15.351ZM14.8656 14.3144C14.7502 14.4298 14.73 14.4479 14.7096 14.4624L15.2918 15.2755C15.394 15.2024 15.4785 15.1157 15.5727 15.0215L14.8656 14.3144ZM14.0706 15.4837C14.4749 15.6016 14.9494 15.5207 15.2918 15.2755L14.7097 14.4624C14.6168 14.5289 14.4601 14.5556 14.3505 14.5237L14.0706 15.4837ZM8.13266 8.39904C8.07325 8.2753 8.0659 8.25699 8.05854 8.23176L7.0985 8.51161C7.13331 8.63101 7.18084 8.727 7.23118 8.83186L8.13266 8.39904ZM7.56074 7.0095C7.46657 7.10368 7.37987 7.18825 7.30674 7.29038L8.11979 7.87258C8.13436 7.85222 8.15245 7.83201 8.26785 7.71661L7.56074 7.0095ZM8.05854 8.23176C8.02658 8.12211 8.05329 7.96544 8.11979 7.87257L7.30674 7.29039C7.06154 7.63281 6.98064 8.10728 7.0985 8.51161L8.05854 8.23176Z" fill="#1D2939"/>
</svg>
