<svg width="17" height="17" viewBox="0 0 17 17" fill="none" xmlns="http://www.w3.org/2000/svg">
<path fill-rule="evenodd" clip-rule="evenodd" d="M6.83335 1.83335C4.07193 1.83335 1.83335 4.07193 1.83335 6.83335C1.83335 9.59478 4.07193 11.8334 6.83335 11.8334C9.59478 11.8334 11.8334 9.59478 11.8334 6.83335C11.8334 4.07193 9.59478 1.83335 6.83335 1.83335ZM0.166687 6.83335C0.166687 3.15146 3.15146 0.166687 6.83335 0.166687C10.5153 0.166687 13.5 3.15146 13.5 6.83335C13.5 8.37393 12.9775 9.79245 12.0999 10.9213L16.5893 15.4108C16.9147 15.7362 16.9147 16.2638 16.5893 16.5893C16.2638 16.9147 15.7362 16.9147 15.4108 16.5893L10.9214 12.0999C9.79252 12.9774 8.37397 13.5 6.83335 13.5C3.15146 13.5 0.166687 10.5153 0.166687 6.83335Z" fill="white"/>
</svg>
