<svg width="18" height="18" viewBox="0 0 18 18" fill="none" xmlns="http://www.w3.org/2000/svg">
<path fill-rule="evenodd" clip-rule="evenodd" d="M8.41107 0.910704C8.73651 0.585267 9.26415 0.585267 9.58958 0.910704L12.9229 4.24404C13.2484 4.56947 13.2484 5.09711 12.9229 5.42255C12.5975 5.74799 12.0698 5.74799 11.7444 5.42255L9.83366 3.5118V11.5C9.83366 11.9602 9.46056 12.3333 9.00033 12.3333C8.54009 12.3333 8.16699 11.9602 8.16699 11.5V3.5118L6.25625 5.42255C5.93081 5.74799 5.40317 5.74799 5.07774 5.42255C4.7523 5.09711 4.7523 4.56947 5.07774 4.24404L8.41107 0.910704ZM1.50033 8.16663C1.96056 8.16663 2.33366 8.53972 2.33366 8.99996V12.5C2.33366 13.2138 2.33431 13.699 2.36495 14.0741C2.3948 14.4394 2.44891 14.6263 2.51532 14.7566C2.6751 15.0702 2.93007 15.3252 3.24367 15.485C3.37401 15.5514 3.56084 15.6055 3.92619 15.6353C4.30127 15.666 4.78651 15.6666 5.50033 15.6666H12.5003C13.2141 15.6666 13.6994 15.666 14.0745 15.6353C14.4398 15.6055 14.6266 15.5514 14.757 15.485C15.0706 15.3252 15.3255 15.0702 15.4853 14.7566C15.5517 14.6263 15.6058 14.4394 15.6357 14.0741C15.6663 13.699 15.667 13.2138 15.667 12.5V8.99996C15.667 8.53972 16.0401 8.16663 16.5003 8.16663C16.9606 8.16663 17.3337 8.53972 17.3337 8.99996V12.5344C17.3337 13.2052 17.3337 13.7588 17.2968 14.2098C17.2586 14.6782 17.1764 15.1088 16.9703 15.5133C16.6508 16.1405 16.1408 16.6504 15.5136 16.97C15.1092 17.1761 14.6786 17.2582 14.2102 17.2965C13.7592 17.3333 13.2056 17.3333 12.5348 17.3333H5.46589C4.79509 17.3333 4.24146 17.3333 3.79047 17.2965C3.32206 17.2582 2.89147 17.1761 2.48703 16.97C1.85982 16.6504 1.34988 16.1405 1.0303 15.5133C0.824229 15.1088 0.742092 14.6782 0.703821 14.2098C0.666973 13.7588 0.666982 13.2052 0.666993 12.5344L0.666993 8.99996C0.666993 8.53972 1.04009 8.16663 1.50033 8.16663Z" fill="#101828"/>
</svg>
