<svg width="23" height="21" viewBox="0 0 23 21" fill="none" xmlns="http://www.w3.org/2000/svg">
<path d="M5.99819 15C5.4459 15 4.99819 15.4477 4.99819 16C4.99819 16.5523 5.4459 17 5.99819 17V15ZM19.9758 13.3724L18.9919 13.1935L19.9758 13.3724ZM21.3266 5.94311L22.3104 6.12199V6.12199L21.3266 5.94311ZM4.49819 4C3.9459 4 3.49819 4.44772 3.49819 5C3.49819 5.55228 3.9459 6 4.49819 6V4ZM21.3694 5.33074L20.4285 5.66926V5.66926L21.3694 5.33074ZM21.1496 5.06739L21.651 4.20216L21.651 4.20216L21.1496 5.06739ZM18.6395 15.8284L19.0447 16.7426L19.0447 16.7426L18.6395 15.8284ZM19.4828 15.1246L20.3097 15.6868L20.3097 15.6868L19.4828 15.1246ZM1.49805 0C0.945762 0 0.498047 0.447715 0.498047 1C0.498047 1.55228 0.945762 2 1.49805 2V0ZM3.60466 1.67523L4.59243 1.51927V1.51927L3.60466 1.67523ZM6.39143 19.3248L7.37919 19.1688L6.39143 19.3248ZM18.498 21C19.0503 21 19.498 20.5523 19.498 20C19.498 19.4477 19.0503 19 18.498 19V21ZM6.5073 19.7744L5.67131 20.3231L5.67131 20.3231L6.5073 19.7744ZM6.71947 19.9557L7.13112 19.0443L7.13111 19.0443L6.71947 19.9557ZM3.27662 1.04433L3.68827 0.132984L3.68827 0.132984L3.27662 1.04433ZM3.4888 1.22563L4.32479 0.676885L4.32479 0.676885L3.4888 1.22563ZM5.99819 17H16.8274V15H5.99819V17ZM20.9597 13.5513L22.3104 6.12199L20.3427 5.76422L18.9919 13.1935L20.9597 13.5513ZM20.5395 4H4.49819V6H20.5395V4ZM22.3104 6.12199C22.3367 5.97765 22.3688 5.80605 22.3828 5.65584C22.3977 5.49661 22.405 5.25527 22.3104 4.99222L20.4285 5.66926C20.4041 5.60156 20.3955 5.54353 20.3927 5.50548C20.3903 5.47133 20.3928 5.45533 20.3915 5.46991C20.3901 5.48456 20.3866 5.51295 20.3778 5.56599C20.3691 5.61885 20.3579 5.68086 20.3427 5.76422L22.3104 6.12199ZM20.5395 6C20.6242 6 20.6872 6.00003 20.7408 6.00092C20.7945 6.00181 20.8231 6.00339 20.8378 6.00466C20.8524 6.00593 20.8362 6.00556 20.803 5.99705C20.7661 5.98757 20.7105 5.96869 20.6483 5.93261L21.651 4.20216C21.4091 4.062 21.1704 4.02604 21.0111 4.01218C20.8608 3.99911 20.6862 4 20.5395 4V6ZM22.3104 4.99222C22.1906 4.65935 21.9571 4.37952 21.651 4.20216L20.6482 5.93261C20.5462 5.87349 20.4684 5.78022 20.4285 5.66926L22.3104 4.99222ZM16.8274 17C17.2875 17 17.6874 17.0007 18.0193 16.9757C18.3638 16.9499 18.7056 16.8929 19.0447 16.7426L18.2342 14.9142C18.1862 14.9355 18.0969 14.9643 17.8697 14.9814C17.6298 14.9993 17.3173 15 16.8274 15V17ZM18.9919 13.1935C18.9043 13.6755 18.8477 13.9829 18.7871 14.2157C18.7297 14.4362 18.6853 14.5189 18.6558 14.5623L20.3097 15.6868C20.5183 15.3801 20.6355 15.054 20.7226 14.7197C20.8065 14.3976 20.8774 14.004 20.9597 13.5513L18.9919 13.1935ZM19.0447 16.7426C19.5567 16.5156 19.9949 16.1499 20.3097 15.6868L18.6558 14.5623C18.5509 14.7166 18.4048 14.8385 18.2342 14.9142L19.0447 16.7426ZM1.49805 2H2.81445V0H1.49805V2ZM2.6169 1.83119L5.40367 19.4807L7.37919 19.1688L4.59243 1.51927L2.6169 1.83119ZM7.18164 21H18.498V19H7.18164V21ZM5.40367 19.4807C5.42024 19.5857 5.44067 19.7194 5.46829 19.836C5.4988 19.9649 5.55264 20.1423 5.67131 20.3231L7.34329 19.2256C7.37222 19.2697 7.39098 19.3099 7.40244 19.3396C7.41291 19.3667 7.41607 19.382 7.41451 19.3754C7.41283 19.3683 7.40905 19.3506 7.40255 19.313C7.39605 19.2754 7.38899 19.2308 7.37919 19.1688L5.40367 19.4807ZM7.18164 19C7.11884 19 7.07374 19 7.03557 18.9994C6.99746 18.9989 6.97939 18.9979 6.9721 18.9973C6.96536 18.9968 6.98092 18.9976 7.00933 19.0037C7.04043 19.0104 7.08306 19.0226 7.13112 19.0443L6.30782 20.867C6.5049 20.956 6.68852 20.9816 6.8206 20.9916C6.94016 21.0007 7.07541 21 7.18164 21V19ZM5.67131 20.3231C5.82756 20.5612 6.04833 20.7498 6.30783 20.867L7.13111 19.0443C7.21761 19.0834 7.2912 19.1463 7.34329 19.2256L5.67131 20.3231ZM2.81445 2C2.87725 2 2.92235 2.00002 2.96053 2.00058C2.99863 2.00115 3.01671 2.00211 3.02399 2.00267C3.03074 2.00318 3.01517 2.00244 2.98677 1.99632C2.95567 1.98963 2.91303 1.97738 2.86498 1.95567L3.68827 0.132984C3.49118 0.0439631 3.30757 0.0184477 3.17549 0.00841403C3.05593 -0.000668645 2.92068 0 2.81445 0V2ZM4.59243 1.51927C4.57586 1.41434 4.55542 1.28064 4.52781 1.16396C4.49729 1.03506 4.44345 0.857673 4.32479 0.676885L2.6528 1.77437C2.62387 1.73029 2.60511 1.69008 2.59366 1.66041C2.58319 1.63331 2.58002 1.61805 2.58158 1.62463C2.58327 1.63174 2.58704 1.64945 2.59354 1.687C2.60005 1.72461 2.6071 1.76916 2.6169 1.83119L4.59243 1.51927ZM2.86498 1.95567C2.77848 1.9166 2.70489 1.85372 2.6528 1.77437L4.32479 0.676885C4.16854 0.438845 3.94776 0.250195 3.68827 0.132984L2.86498 1.95567Z" fill="#475467"/>
</svg>
