<svg width="10" height="10" viewBox="0 0 10 10" fill="none" xmlns="http://www.w3.org/2000/svg">
<path fill-rule="evenodd" clip-rule="evenodd" d="M2.5 0.5C2.77614 0.5 3 0.723858 3 1V7.79289L4.14645 6.64645C4.34171 6.45118 4.65829 6.45118 4.85355 6.64645C5.04882 6.84171 5.04882 7.15829 4.85355 7.35355L2.85355 9.35355C2.65829 9.54882 2.34171 9.54882 2.14645 9.35355L0.146447 7.35355C-0.0488155 7.15829 -0.0488155 6.84171 0.146447 6.64645C0.341709 6.45118 0.658291 6.45118 0.853553 6.64645L2 7.79289V1C2 0.723858 2.22386 0.5 2.5 0.5ZM7.14645 0.646447C7.34171 0.451184 7.65829 0.451184 7.85355 0.646447L9.85355 2.64645C10.0488 2.84171 10.0488 3.15829 9.85355 3.35355C9.65829 3.54882 9.34171 3.54882 9.14645 3.35355L8 2.20711V9C8 9.27614 7.77614 9.5 7.5 9.5C7.22386 9.5 7 9.27614 7 9V2.20711L5.85355 3.35355C5.65829 3.54882 5.34171 3.54882 5.14645 3.35355C4.95118 3.15829 4.95118 2.84171 5.14645 2.64645L7.14645 0.646447Z" fill="white"/>
</svg>
