<svg width="22" height="22" viewBox="0 0 22 22" fill="none" xmlns="http://www.w3.org/2000/svg">
<path d="M3.39578 18.0477C3.18 18.5561 3.4172 19.1431 3.92558 19.3589C4.43397 19.5747 5.02102 19.3375 5.23681 18.8291L3.39578 18.0477ZM16.7632 18.8291C16.979 19.3375 17.566 19.5747 18.0744 19.3589C18.5828 19.1431 18.82 18.5561 18.6042 18.0477L16.7632 18.8291ZM8 15C5.92959 15 4.15534 16.2582 3.39578 18.0477L5.23681 18.8291C5.6939 17.7522 6.76026 17 8 17V15ZM14 15H8V17H14V15ZM18.6042 18.0477C17.8447 16.2582 16.0704 15 14 15V17C15.2397 17 16.3061 17.7522 16.7632 18.8291L18.6042 18.0477ZM14 8.5C14 10.1569 12.6569 11.5 11 11.5V13.5C13.7614 13.5 16 11.2614 16 8.5H14ZM11 11.5C9.34315 11.5 8 10.1569 8 8.5H6C6 11.2614 8.23858 13.5 11 13.5V11.5ZM8 8.5C8 6.84315 9.34315 5.5 11 5.5V3.5C8.23858 3.5 6 5.73858 6 8.5H8ZM11 5.5C12.6569 5.5 14 6.84315 14 8.5H16C16 5.73858 13.7614 3.5 11 3.5V5.5ZM20 11C20 15.9706 15.9706 20 11 20V22C17.0751 22 22 17.0751 22 11H20ZM11 20C6.02944 20 2 15.9706 2 11H0C0 17.0751 4.92487 22 11 22V20ZM2 11C2 6.02944 6.02944 2 11 2V0C4.92487 0 0 4.92487 0 11H2ZM11 2C15.9706 2 20 6.02944 20 11H22C22 4.92487 17.0751 0 11 0V2Z" fill="#00AD97"/>
</svg>
