<svg width="14" height="15" viewBox="0 0 14 15" fill="none" xmlns="http://www.w3.org/2000/svg">
<path d="M1.1665 4.00002C1.5165 4.29169 1.8665 4.58335 2.62484 4.58335C4.08317 4.58335 4.08317 3.41669 5.5415 3.41669C6.29984 3.41669 6.64984 3.70835 6.99984 4.00002C7.34984 4.29169 7.69984 4.58335 8.45817 4.58335C9.9165 4.58335 9.9165 3.41669 11.3748 3.41669C12.1332 3.41669 12.4832 3.70835 12.8332 4.00002M1.1665 11C1.5165 11.2917 1.8665 11.5834 2.62484 11.5834C4.08317 11.5834 4.08317 10.4167 5.5415 10.4167C6.29984 10.4167 6.64984 10.7084 6.99984 11C7.34984 11.2917 7.69984 11.5834 8.45817 11.5834C9.9165 11.5834 9.9165 10.4167 11.3748 10.4167C12.1332 10.4167 12.4832 10.7084 12.8332 11M1.1665 7.50002C1.5165 7.79169 1.8665 8.08335 2.62484 8.08335C4.08317 8.08335 4.08317 6.91669 5.5415 6.91669C6.29984 6.91669 6.64984 7.20835 6.99984 7.50002C7.34984 7.79169 7.69984 8.08335 8.45817 8.08335C9.9165 8.08335 9.9165 6.91669 11.3748 6.91669C12.1332 6.91669 12.4832 7.20835 12.8332 7.50002" stroke="#667085" stroke-width="2" stroke-linecap="round" stroke-linejoin="round"/>
</svg>
