<svg width="15" height="14" viewBox="0 0 15 14" fill="none" xmlns="http://www.w3.org/2000/svg">
<path fill-rule="evenodd" clip-rule="evenodd" d="M0.54094 0.292893C0.931464 -0.0976311 1.56463 -0.0976311 1.95515 0.292893L7.24805 5.58579L12.5409 0.292893C12.9315 -0.0976311 13.5646 -0.0976311 13.9552 0.292893C14.3457 0.683417 14.3457 1.31658 13.9552 1.70711L8.66226 7L13.9552 12.2929C14.3457 12.6834 14.3457 13.3166 13.9552 13.7071C13.5646 14.0976 12.9315 14.0976 12.5409 13.7071L7.24805 8.41421L1.95515 13.7071C1.56463 14.0976 0.931464 14.0976 0.54094 13.7071C0.150416 13.3166 0.150416 12.6834 0.54094 12.2929L5.83383 7L0.54094 1.70711C0.150416 1.31658 0.150416 0.683417 0.54094 0.292893Z" fill="#F25247"/>
</svg>
