<svg width="20" height="21" viewBox="0 0 20 21" fill="none" xmlns="http://www.w3.org/2000/svg">
<path fill-rule="evenodd" clip-rule="evenodd" d="M9.99967 2.99992C5.85754 2.99992 2.49967 6.35778 2.49967 10.4999C2.49967 14.6421 5.85754 17.9999 9.99967 17.9999C14.1418 17.9999 17.4997 14.6421 17.4997 10.4999C17.4997 6.35778 14.1418 2.99992 9.99967 2.99992ZM0.833008 10.4999C0.833008 5.43731 4.93706 1.33325 9.99967 1.33325C15.0623 1.33325 19.1663 5.43731 19.1663 10.4999C19.1663 15.5625 15.0623 19.6666 9.99967 19.6666C4.93706 19.6666 0.833008 15.5625 0.833008 10.4999ZM6.91042 7.41066C7.23585 7.08523 7.76349 7.08523 8.08893 7.41066L9.99967 9.32141L11.9104 7.41066C12.2359 7.08523 12.7635 7.08523 13.0889 7.41066C13.4144 7.7361 13.4144 8.26374 13.0889 8.58917L11.1782 10.4999L13.0889 12.4107C13.4144 12.7361 13.4144 13.2637 13.0889 13.5892C12.7635 13.9146 12.2359 13.9146 11.9104 13.5892L9.99967 11.6784L8.08893 13.5892C7.76349 13.9146 7.23585 13.9146 6.91042 13.5892C6.58498 13.2637 6.58498 12.7361 6.91042 12.4107L8.82116 10.4999L6.91042 8.58917C6.58498 8.26374 6.58498 7.7361 6.91042 7.41066Z" fill="#F25247"/>
</svg>
