<svg width="22" height="22" viewBox="0 0 22 22" fill="none" xmlns="http://www.w3.org/2000/svg">
<path d="M17.2071 6.20711C17.5976 5.81658 17.5976 5.18342 17.2071 4.79289C16.8166 4.40237 16.1834 4.40237 15.7929 4.79289L17.2071 6.20711ZM4.79289 15.7929C4.40237 16.1834 4.40237 16.8166 4.79289 17.2071C5.18342 17.5976 5.81658 17.5976 6.20711 17.2071L4.79289 15.7929ZM6.20711 4.79289C5.81658 4.40237 5.18342 4.40237 4.79289 4.79289C4.40237 5.18342 4.40237 5.81658 4.79289 6.20711L6.20711 4.79289ZM15.7929 17.2071C16.1834 17.5976 16.8166 17.5976 17.2071 17.2071C17.5976 16.8166 17.5976 16.1834 17.2071 15.7929L15.7929 17.2071ZM15.7929 4.79289L4.79289 15.7929L6.20711 17.2071L17.2071 6.20711L15.7929 4.79289ZM4.79289 6.20711L15.7929 17.2071L17.2071 15.7929L6.20711 4.79289L4.79289 6.20711Z" fill="#00AD97"/>
</svg>
